<?xml version="1.0" encoding="utf-8"?>
<!-- Generator: Adobe Illustrator 16.0.0, SVG Export Plug-In . SVG Version: 6.00 Build 0)  -->
<!DOCTYPE svg PUBLIC "-//W3C//DTD SVG 1.1//EN" "http://www.w3.org/Graphics/SVG/1.1/DTD/svg11.dtd">
<svg version="1.1" id="Layer_1" xmlns="http://www.w3.org/2000/svg" xmlns:xlink="http://www.w3.org/1999/xlink" x="0px" y="0px"
	 width="65.439px" height="191.583px" viewBox="0 0 65.439 191.583" enable-background="new 0 0 65.439 191.583"
	 xml:space="preserve">
<g>
	<path fill="#929091" d="M52.452,50.807c0.08,0.049-0.043,0.103-0.756,0.152L52.452,50.807z"/>
	<path fill="#929091" d="M52.452,50.807l-0.756,0.152C52.409,50.908,52.532,50.855,52.452,50.807z"/>
	<path fill="#929091" d="M51.264,36.16c1.244-0.016,2.506-0.023,3.803-0.018C53.794,36.092,52.528,36.109,51.264,36.16z"/>
	<path fill="#929091" d="M46.502,149.431c-1.619,0.047-3.252,0.104-4.896,0.176C44.625,150.47,46.249,150.405,46.502,149.431z"/>
	<path fill="#929091" d="M51.55,146.688c1.785-0.021,3.583,0,5.385,0.045c0.134-0.238,0.28-0.455,0.444-0.646
		C55.368,146.259,53.409,146.491,51.55,146.688z"/>
	<path fill="#929091" d="M43.922,146.933c-1.697-0.195-3.186-0.654-4.393-1.549"/>
	<path fill="#929091" d="M43.922,146.933c2.225,0.254,4.813,0.053,7.628-0.244C48.983,146.718,46.436,146.808,43.922,146.933z"/>
	<path fill="#2C333B" d="M36.604,186.687c-1.863-1.221-3.604-2.6-5.167-4.055c-2.254-2.098-4.098-4.752-4.709-7.771
		c-1.95-9.631,9.925-11.402,11.111-19.91c0.411-2.943-0.089-5.928-0.522-8.868c-2.053-13.855-2.684-27.82-1.83-41.796
		C37.015,76.409,47.075,15.1,4.039,11.35c-1.311-0.115-2.627-0.158-3.943-0.146L0,0.575L63.766,0
		c0.162,18.023,0.325,36.049,0.487,54.073c0.2,22.263,0.407,44.524,0.618,66.787c0.106,11.391,0.216,22.781,0.326,34.17
		c0.055,5.695,0.109,11.393,0.166,17.086c0.045,4.709,0.603,9.496-2.152,13.631c-2.917,4.379-8.643,6.266-13.879,5.754"/>
	<circle fill="#DDDDDC" cx="50.917" cy="169.546" r="5.314"/>
	<circle fill="#DDDDDC" cx="50.276" cy="98.594" r="5.314"/>
	<circle fill="#DDDDDC" cx="49.635" cy="27.638" r="5.314"/>
	<rect x="0.026" fill="#2C333B" width="63.74" height="6.949"/>
</g>
</svg>
