<?xml version="1.0" encoding="utf-8"?>
<!-- Generator: Adobe Illustrator 16.0.0, SVG Export Plug-In . SVG Version: 6.00 Build 0)  -->
<!DOCTYPE svg PUBLIC "-//W3C//DTD SVG 1.1//EN" "http://www.w3.org/Graphics/SVG/1.1/DTD/svg11.dtd">
<svg version="1.1" id="Layer_1" xmlns="http://www.w3.org/2000/svg" xmlns:xlink="http://www.w3.org/1999/xlink" x="0px" y="0px"
	 width="65.216px" height="271.474px" viewBox="0 0 65.216 271.474" enable-background="new 0 0 65.216 271.474"
	 xml:space="preserve">
<g>
	<path fill="#DDDDDC" d="M1.237,257.516l63.979,13.957l-1.155-128.076L0.646,192.064C1.007,232.029,1.237,257.516,1.237,257.516z"/>
	<path fill="#929091" d="M32.113,8.355"/>
	<path fill="#929091" d="M32.113,14.537"/>
	<path fill="#929091" d="M27.018,168.718c0.1-0.014,0.191-0.026,0.279-0.038C27.184,168.695,27.087,168.708,27.018,168.718z"/>
	<path fill="#929091" d="M27.388,168.667c0.114-0.015,0.208-0.026,0.298-0.039C27.585,168.643,27.484,168.656,27.388,168.667z"/>
	<path fill="#929091" d="M26.909,168.732c0.66-0.072,3.271-0.42,5.206-0.683v-0.015c-1.153,0.152-2.815,0.376-5.14,0.688
		C26.936,168.729,26.909,168.732,26.909,168.732z"/>
	<path fill="#929091" d="M26.909,168.732c0,0,0.027-0.004,0.065-0.008C26.951,168.727,26.932,168.73,26.909,168.732z"/>
	<path fill="#929091" d="M27.297,168.68c0.03-0.004,0.059-0.008,0.091-0.013C27.361,168.671,27.326,168.677,27.297,168.68z"/>
	<path fill="#929091" d="M28.271,168.55c0.003-0.001,0.006-0.001,0.009-0.002C28.276,168.549,28.275,168.549,28.271,168.55z"/>
	<path fill="#929091" d="M27.018,168.718c-0.04,0.005-0.068,0.009-0.109,0.015c0.023-0.002,0.042-0.006,0.065-0.008
		C26.987,168.723,27.001,168.72,27.018,168.718z"/>
	<path fill="#929091" d="M28.201,168.559c0.022-0.002,0.054-0.007,0.07-0.009C28.251,168.552,28.228,168.555,28.201,168.559z"/>
	<path fill="#929091" d="M27.687,168.628c0.201-0.026,0.389-0.053,0.514-0.069C28.1,168.573,27.932,168.595,27.687,168.628z"/>
	<path fill="#929091" d="M28.28,168.548C28.368,168.537,28.353,168.539,28.28,168.548L28.28,168.548z"/>
	<path fill="#929091" d="M30.102,167.273c-0.204-0.008-0.391-0.017-0.579-0.022C29.652,167.255,29.835,167.264,30.102,167.273z"/>
	<path fill="#929091" d="M29.522,167.25c0.188,0.007,0.375,0.016,0.579,0.021C30.026,167.264,28.768,167.22,29.522,167.25z"/>
	<path fill="#929091" d="M29.522,167.25c-0.754-0.03,0.503,0.014,0.579,0.021c-0.456-0.057-1.063-0.104-1.685-0.141
		c-0.274,0.014-0.547,0.025-0.821,0.038C28.117,167.193,28.754,167.22,29.522,167.25z"/>
	<path fill="#929091" d="M8.541,167.625c-0.029,0.023-0.058,0.044-0.087,0.066C8.66,167.663,8.711,167.639,8.541,167.625z"/>
	<path fill="#929091" d="M30.774,164.896c-0.638,0.455-0.969,0.823-1.067,1.117c0.86,0.034,1.674,0.068,2.408,0.103v-1.058
		C31.268,165.042,30.638,164.994,30.774,164.896z"/>
	<path fill="#929091" d="M32.113,164.904v-0.008c-0.408,0-0.843,0-1.339,0C31.25,164.896,31.691,164.898,32.113,164.904z"/>
	<path fill="#929091" d="M30.774,164.896c-0.136,0.098,0.494,0.146,1.339,0.162v-0.154C31.691,164.898,31.25,164.896,30.774,164.896
		z"/>
	<path fill="#929091" d="M31.654,166.984c0.149,0.007,0.302,0.011,0.459,0.012v-0.031C31.961,166.971,31.807,166.979,31.654,166.984
		z"/>
	<path fill="#929091" d="M32.113,166.251c-1.187-0.056-1.943-0.125-2.417-0.202c-0.167,0.608,0.708,0.881,1.957,0.936
		c0.153-0.006,0.307-0.014,0.459-0.021V166.251z"/>
	<path fill="#929091" d="M27.596,167.17c0.274-0.013,0.547-0.025,0.821-0.038C26.185,166.999,23.781,166.999,27.596,167.17z"/>
	<path fill="#929091" d="M29.438,166.001c0.073,0.017,0.164,0.032,0.259,0.048c0.003-0.013,0.005-0.023,0.009-0.035
		C29.617,166.009,29.529,166.005,29.438,166.001z"/>
	<path fill="#929091" d="M29.697,166.049c0.473,0.077,1.23,0.146,2.417,0.202v-0.136c-0.733-0.033-1.547-0.067-2.407-0.104
		C29.703,166.025,29.701,166.037,29.697,166.049z"/>
	<path fill="#929091" d="M6.35,169.557C6.242,169.557,6.263,169.557,6.35,169.557L6.35,169.557z"/>
	<path fill="#929091" d="M7.792,169.57c3.622-0.381,1.601-0.502-1.257-0.496c-0.269,0.168-0.543,0.322-0.818,0.474
		C6.346,169.555,7.031,169.563,7.792,169.57z"/>
	<path fill="#929091" d="M7.792,169.57c-0.031-0.002-0.052-0.002-0.083-0.002C7.757,169.568,7.792,169.57,7.792,169.57z"/>
	<path fill="#929091" d="M7.709,169.568c-0.046,0-0.106,0-0.182-0.002C7.588,169.568,7.642,169.568,7.709,169.568z"/>
	<path fill="#929091" d="M7.527,169.566c-0.386-0.002-0.669-0.004-0.863-0.006C6.936,169.563,7.288,169.564,7.527,169.566z"/>
	<path fill="#929091" d="M6.664,169.561c-0.135-0.002-0.245-0.002-0.313-0.004C6.41,169.559,6.521,169.559,6.664,169.561z"/>
	<path fill="#929091" d="M5.716,169.547c0.275-0.15,0.549-0.306,0.818-0.474C2.012,169.084-4.601,169.415,5.716,169.547z"/>
	<path fill="#929091" d="M9.699,170.791c1.147,0.463,7.579,0.344,8.777-0.064C15.954,171.061,12.045,170.844,9.699,170.791z"/>
	<path fill="#929091" d="M32.113,170.525v-0.09C30.911,170.434,31.352,170.484,32.113,170.525z"/>
	<path fill="#929091" d="M32.113,173.407v-1.363C24.396,174.055,4.681,176.669,32.113,173.407z"/>
	<path fill="#929091" d="M21.149,171.352c3.666-0.117,7.321-0.381,10.964-0.771v-0.025
		C28.418,170.814,24.713,171.136,21.149,171.352z"/>
	<path fill="#929091" d="M23.943,167.534c-3.905,0.073-7.811,0.146-11.716,0.218C16.143,168.452,20.048,168.379,23.943,167.534z"/>
	<path fill="#929091" d="M32.113,170.525v0.029c0.08-0.007,0.16-0.013,0.238-0.018C32.27,170.534,32.191,170.53,32.113,170.525z"/>
	<path fill="#929091" d="M34.029,170.539c0.162,0.057-0.752,0.04-1.555,0.004c-0.121,0.014-0.24,0.025-0.361,0.038v1.463
		C34.52,171.417,35.75,170.852,34.029,170.539z"/>
	<path fill="#929091" d="M34.029,170.539c-0.051-0.02-0.217-0.044-0.523-0.079c-0.003,0.001-0.006,0.001-0.009,0.001
		C33.7,170.484,33.875,170.51,34.029,170.539z"/>
	<path fill="#929091" d="M38.805,165.741c2.117,0.054,5.529,0.72,7.562,1.046C67.057,165.409,45.693,165.546,38.805,165.741z"/>
	<path fill="#929091" d="M32.87,170.501c-0.172,0.013-0.345,0.024-0.519,0.036c0.041,0.002,0.082,0.004,0.123,0.005
		C32.605,170.529,32.738,170.516,32.87,170.501z"/>
	<path fill="#929091" d="M32.113,168.036v0.015C34.333,167.751,35.648,167.564,32.113,168.036z"/>
	<path fill="#929091" d="M60.253,169.963"/>
	<path fill="#929091" d="M55.373,169.74"/>
	<path fill="#929091" d="M46.366,166.787c-0.22,0.015-0.442,0.029-0.673,0.045c0.406,0.014,0.803,0.021,1.214,0.039
		C46.742,166.846,46.559,166.818,46.366,166.787z"/>
	<path fill="#929091" d="M32.113,166.996c0.609,0.002,1.277-0.037,1.941-0.107c-0.65,0.023-1.297,0.049-1.941,0.076V166.996z"/>
	<path fill="#929091" d="M38.805,165.741c-0.231,0.007-0.447,0.013-0.645,0.02c-0.169,0.438-2.117,0.919-4.105,1.128
		c3.711-0.136,7.545-0.195,11.639-0.057c0.229-0.016,0.453-0.03,0.673-0.045C44.334,166.46,40.922,165.794,38.805,165.741z"/>
	<path fill="#929091" d="M38.16,165.76c-0.118,0.004-0.23,0.008-0.335,0.012c0.104-0.013,0.22-0.021,0.338-0.024
		c0.091-0.304-0.685-0.581-2.901-0.733c-0.638,0.039-2.066,0.066-3.148,0.045v1.059c2.119,0.095,3.563,0.177,3.406,0.234
		c-1.41-0.024-2.522-0.059-3.406-0.1v0.713c0.645-0.027,1.291-0.053,1.941-0.076C36.043,166.678,37.991,166.197,38.16,165.76z"/>
	<path fill="#929091" d="M35.262,165.014c0.768-0.047,0.375-0.107-3.148-0.117v0.008C33.389,164.918,34.428,164.957,35.262,165.014z
		"/>
	<path fill="#929091" d="M44.202,168.927c4.463-0.088,8.926-0.151,13.39-0.202C54.329,167.712,48.997,167.167,44.202,168.927z"/>
	<path fill="#929091" d="M38.16,165.76c0.002-0.005,0.001-0.009,0.003-0.014c-0.119,0.005-0.233,0.013-0.338,0.025
		C37.93,165.768,38.042,165.764,38.16,165.76z"/>
	<path fill="#929091" d="M38.805,165.741c-0.23-0.007-0.445-0.005-0.642,0.006c-0.001,0.005-0.001,0.009-0.003,0.014
		C38.357,165.753,38.573,165.748,38.805,165.741z"/>
	<path fill="#929091" d="M32.113,165.059c1.082,0.021,2.511-0.007,3.148-0.045c-0.834-0.058-1.875-0.096-3.148-0.109V165.059z"/>
	<path fill="#929091" d="M35.52,166.352c0.156-0.06-1.287-0.142-3.406-0.235v0.136C32.997,166.292,34.109,166.326,35.52,166.352z"/>
	<path fill="#929091" d="M32.352,170.538c-0.078,0.005-0.158,0.011-0.238,0.017v0.026c0.121-0.013,0.24-0.024,0.361-0.038
		C32.434,170.542,32.393,170.54,32.352,170.538z"/>
	<path fill="#929091" d="M34.029,170.539c-0.154-0.028-0.329-0.055-0.533-0.078c-0.209,0.014-0.417,0.027-0.626,0.041
		c-0.132,0.016-0.265,0.027-0.396,0.041C33.275,170.579,34.191,170.595,34.029,170.539z"/>
	<path fill="#929091" d="M33.496,170.46c-0.038-0.005-0.066-0.01-0.105-0.015c-0.174,0.021-0.348,0.035-0.521,0.056
		C33.079,170.488,33.287,170.475,33.496,170.46z"/>
	<path fill="#929091" d="M32.113,172.043v1.363c5.009-0.596,11.57-1.385,20.082-2.411c-5.576-1.119-12.09-0.966-18.689-0.536
		c0.307,0.035,0.473,0.061,0.523,0.079C35.75,170.852,34.52,171.417,32.113,172.043z"/>
	<path fill="#929091" d="M33.505,170.459c-0.039-0.005-0.071-0.009-0.116-0.014c0.041,0.005,0.069,0.01,0.106,0.015
		C33.499,170.46,33.502,170.46,33.505,170.459z"/>
	<path fill="#929091" d="M32.352,170.538c0.172-0.013,0.346-0.024,0.519-0.036c0.173-0.02,0.347-0.035,0.521-0.055
		c-0.55-0.008-0.967-0.012-1.275-0.012v0.09C32.191,170.53,32.27,170.534,32.352,170.538z"/>
	<path fill="#DDDDDC" d="M0.176,159.98l63.414-48.669l-0.055-6.085l-63.413,48.67C0.14,155.95,0.158,157.96,0.176,159.98z"/>
	<path fill="#DDDDDC" d="M0.559,202.329l63.414-48.669L63.8,134.481L0.385,183.15C0.4,184.723,0.544,200.792,0.559,202.329z"/>
	<path fill="#DDDDDC" d="M63.5,101.332l-0.104-11.469c0,0-10.896-89.931-18.398-89.863S-0.697,63.245,0.01,141.544
		c0.026,2.869,0.051,5.647,0.077,8.457L63.5,101.332z"/>
	<path fill="#F3F3F3" d="M0.646,212.064l63.415-48.668l-0.088-9.736L0.559,202.329C0.588,205.662,0.618,208.908,0.646,212.064z"/>
	<path fill="#F3F3F3" d="M0.385,183.15l63.414-48.669l-0.209-23.17L0.176,159.98C0.297,173.382,0.28,171.48,0.385,183.15z"/>
	<path fill="#F3F3F3" d="M0.122,153.896l63.413-48.67l-0.035-3.895l-63.413,48.67C0.098,151.296,0.11,152.615,0.122,153.896z"/>
	<rect x="1.238" y="252.512" fill="#DDDDDC" width="63.892" height="18.961"/>
</g>
</svg>
