<?xml version="1.0" encoding="utf-8"?>
<!-- Generator: Adobe Illustrator 16.0.0, SVG Export Plug-In . SVG Version: 6.00 Build 0)  -->
<!DOCTYPE svg PUBLIC "-//W3C//DTD SVG 1.1//EN" "http://www.w3.org/Graphics/SVG/1.1/DTD/svg11.dtd">
<svg version="1.1" id="Layer_1" xmlns="http://www.w3.org/2000/svg" xmlns:xlink="http://www.w3.org/1999/xlink" x="0px" y="0px"
	 width="103.57px" height="97.632px" viewBox="0 0 103.57 97.632" enable-background="new 0 0 103.57 97.632" xml:space="preserve">
<g>
	<g>
		<path fill="#E5E0BA" d="M1.61,60.284C5.269,75.417,17.069,87.835,26.222,91.88c13.262,5.861,37.082,8.854,52.547-0.625
			c21.653-13.27,26.585-33.049,23.822-48.39C98.599,20.707,88.14,10.618,72.949,4.41c-16.38-6.693-37.315-4.574-47.56,1.497
			C0.695,20.541-2.048,45.151,1.61,60.284z"/>
		<path fill="#CCCB7E" d="M53.833,97.632C53.833,97.632,53.834,97.632,53.833,97.632c-9.57,0-19.936-2.057-27.725-5.498
			C16.836,88.035,5.003,75.503,1.341,60.35C-2.612,44.002,1.278,19.873,25.248,5.668C31.237,2.119,40.659,0,50.452,0
			c8.137,0,15.953,1.436,22.602,4.153c17.285,7.063,26.201,18.626,29.81,38.663c1.069,5.932,1.455,15.107-2.771,25.128
			c-3.989,9.457-11.114,17.381-21.178,23.547C72.361,95.509,63.688,97.632,53.833,97.632z M50.452,0.556
			c-9.697,0-19.014,2.09-24.921,5.59C1.821,20.196-2.027,44.056,1.88,60.219c3.621,14.98,15.302,27.362,24.453,31.408
			c7.723,3.412,18.003,5.449,27.5,5.449c9.753,0,18.325-2.094,24.791-6.057c27.039-16.573,24.971-41.01,23.693-48.105
			C98.746,23.088,89.932,11.65,72.844,4.667C66.261,1.978,58.519,0.556,50.452,0.556z"/>
	</g>
	<path fill="#F2EED8" d="M5.685,59.702c2.868,15.34,13.407,25.86,22.025,29.67c12.49,5.52,34.924,8.338,49.488-0.588
		c20.392-12.498,24.359-29.221,22.856-45.046C98.049,22.63,87.338,12.251,73.032,6.406c-15.426-6.304-36.457-3.717-46.105,2
		C3.671,22.187,2.989,45.29,5.685,59.702z"/>
	<g>
		<path fill="#EFE9D0" d="M13.791,74.669c8.017,11.08,22.532,18.311,38.288,17.834c20.578-0.623,34.049-10.602,40.658-21.203
			c6.61-10.601,6.127-29.598,2.993-39.66C86.876,3.205,48.962,0.96,32.997,8.193c-15.931,7.219-21.95,17.71-24.444,25.442
			C5.06,44.464,5.31,62.945,13.791,74.669z"/>
		<path fill="#CCCB7E" d="M50.61,92.734h-0.002c-14.808,0-28.98-6.876-36.986-17.943C5.282,63.263,4.685,44.95,8.354,33.572
			c3.62-11.222,11.883-19.825,24.557-25.568c4.936-2.236,11.9-3.519,19.111-3.519c17.147,0,37.687,7.117,43.907,27.093
			c3.047,9.785,3.694,29.072-3.016,39.833c-3.614,5.797-8.858,10.78-15.163,14.413c-7.429,4.279-16.064,6.597-25.666,6.888
			C51.596,92.726,51.099,92.734,50.61,92.734z M52.022,4.902c-7.153,0-14.057,1.269-18.939,3.481
			C20.521,14.076,12.333,22.594,8.751,33.7C5.112,44.98,5.7,63.13,13.96,74.546c7.929,10.961,21.972,17.77,36.648,17.772h0.002
			c0.484,0,0.977-0.008,1.463-0.023c25.141-0.762,36.689-15.012,40.487-21.103c6.644-10.656,5.995-29.781,2.972-39.489
			C89.378,11.942,69.021,4.902,52.022,4.902z"/>
	</g>
	<path fill="#F6F2E4" d="M17.028,73.676c7.518,10.2,21.133,16.857,35.91,16.416c19.301-0.572,31.934-9.757,38.133-19.515
		c6.2-9.758,5.747-27.244,2.809-36.506C85.574,7.896,50.015,5.83,35.042,12.488C20.101,19.133,14.454,28.79,12.114,35.907
		C8.839,45.873,9.073,62.885,17.028,73.676z"/>
	<g>
		<path fill="#F2F2E2" d="M19.028,27.899c-4.744,5.757-8.814,17.05-6.235,29.184c4.241,19.955,15.672,29.047,34.173,30.805
			c24.943,2.37,40.159-13.344,44.648-22.698c5.262-10.961,2.371-30.753-2.494-37.166c-8.23-10.851-24.319-17.834-39.535-16.462
			C34.369,12.933,25.202,20.409,19.028,27.899z"/>
		<path fill="#CCCB7E" d="M51.973,88.337c-0.001,0-0.002,0-0.003,0c-1.65,0-3.34-0.082-5.023-0.241
			c-19.34-1.837-30.258-11.679-34.357-30.97c-2.537-11.939,1.326-23.349,6.279-29.359c8.175-9.919,18.217-15.288,30.698-16.413
			c1.269-0.114,2.569-0.172,3.866-0.172c6.879,0,13.92,1.594,20.36,4.61c6.401,2.998,11.759,7.184,15.493,12.106
			c2.453,3.233,4.401,9.74,5.086,16.984c0.756,7.986-0.182,15.422-2.569,20.397C87.975,73.255,74.724,88.337,51.973,88.337z
			 M53.433,11.598c-1.285,0-2.572,0.058-3.829,0.171c-12.364,1.115-22.313,6.434-30.414,16.263
			c-4.89,5.933-8.701,17.204-6.192,29.008c4.056,19.087,14.855,28.823,33.988,30.641c1.671,0.159,3.348,0.24,4.984,0.24
			C74.515,87.922,87.638,72.993,91.427,65.1c2.357-4.909,3.279-12.265,2.531-20.18c-0.678-7.17-2.596-13.596-5.004-16.771
			C81.444,18.25,67.169,11.598,53.433,11.598z"/>
	</g>
	<path fill="#F9F9F1" d="M23.394,29.77c-4.22,5.121-8.196,15.813-5.902,26.606c3.771,17.75,14.889,24.877,31.346,26.44
		c22.187,2.108,36.166-10.554,40.159-18.874c4.681-9.75,2.577-27.271-2.329-34.172c-7.018-9.874-22.051-14.523-35.586-13.304
		C37.548,17.687,28.885,23.107,23.394,29.77z"/>
	<g>
		<path fill="#F8F8EC" d="M21.274,38.625c5.487-17.71,27.941-21.379,37.914-19.955c9.604,1.372,23.197,5.113,27.813,16.088
			c4.295,10.217,4.115,25.443-3.742,33.425c-7.857,7.981-17.709,12.577-30.432,12.721c-11.1,0.124-22.947-5.113-27.188-10.851
			C21.888,64.979,16.462,54.154,21.274,38.625z"/>
		<path fill="#CCCB7E" d="M52.438,81.114c-10.412,0-22.51-4.906-26.967-10.938c-3.734-5.053-9.272-15.879-4.396-31.614
			c4.984-16.087,23.599-20.38,33.811-20.38c1.574,0,3.031,0.094,4.332,0.281c10.269,1.467,23.457,5.47,27.975,16.214
			c4.316,10.266,4.081,25.661-3.785,33.651c-8.332,8.464-18.334,12.646-30.577,12.783C52.7,81.114,52.568,81.114,52.438,81.114z
			 M54.886,18.6c-10.098,0-28.5,4.231-33.413,20.087c-4.821,15.56,0.646,26.254,4.334,31.243
			c4.389,5.938,16.335,10.769,26.632,10.769c0.129,0,0.258-0.001,0.387-0.002c12.128-0.137,22.034-4.277,30.285-12.659
			c7.744-7.867,7.962-23.058,3.698-33.198c-4.442-10.563-17.487-14.511-27.649-15.963C57.877,18.693,56.439,18.6,54.886,18.6z"/>
	</g>
	<path fill="#FCFCF7" d="M26.471,40.579c4.765-15.378,21.854-16.702,30.515-15.465c8.338,1.191,20.204,1.913,25.748,11.606
		c4.777,8.354,3.02,22.484-2.634,27.889c-7.03,6.72-14.634,10.726-27.04,12.18c-9.572,1.123-19.926-4.439-23.608-9.421
		C26.194,62.96,22.292,54.063,26.471,40.579z"/>
	<g>
		<path fill="#FCFDF6" d="M61.226,32.015c0,0,1.181-1.484,2.453-2.12c6.152-3.076,17.148,4.739,18.208,8.605
			c0.941,3.432,0.348,5.863,0.437,9.167c0.063,2.308,1.026,7.466-0.188,9.853c-4.531,8.918-11.308,8.834-12.596,8.605
			c-0.604-0.107-2.328-1.33-3.326-1.892c-0.998-0.561-6.963-7.712-7.649-8.959s-2.868-7.233-1.933-11.162
			S61.226,32.015,61.226,32.015z"/>
		<path fill="#CCCB7E" d="M70.424,66.396c-0.475,0-0.78-0.042-0.921-0.066c-0.443-0.079-1.313-0.627-2.232-1.206
			c-0.428-0.271-0.832-0.524-1.158-0.709c-1.097-0.617-7.104-7.899-7.73-9.04c-0.66-1.2-2.905-7.309-1.953-11.311
			c0.93-3.902,4.57-12.053,4.606-12.134l0.026-0.045c0.05-0.062,1.226-1.527,2.523-2.177c0.959-0.479,2.076-0.723,3.32-0.723
			c6.244,0,14.252,6.068,15.183,9.459c0.655,2.389,0.576,4.301,0.493,6.326c-0.038,0.916-0.077,1.863-0.049,2.891
			c0.015,0.564,0.084,1.296,0.164,2.143c0.238,2.516,0.565,5.961-0.374,7.811C78.181,65.763,72.168,66.396,70.424,66.396z
			 M61.404,32.125c-0.224,0.5-3.675,8.278-4.57,12.036c-0.925,3.887,1.269,9.843,1.913,11.015c0.695,1.265,6.639,8.354,7.568,8.877
			c0.337,0.189,0.745,0.447,1.178,0.72c0.807,0.508,1.72,1.084,2.083,1.148c0.103,0.019,0.388,0.06,0.848,0.06
			c1.685,0,7.493-0.616,11.526-8.555c0.885-1.741,0.565-5.117,0.332-7.582c-0.082-0.854-0.151-1.592-0.167-2.17
			c-0.028-1.042,0.011-1.996,0.05-2.919c0.082-1.992,0.159-3.873-0.479-6.199c-0.877-3.202-8.817-9.154-14.78-9.154
			c-1.179,0-2.232,0.229-3.135,0.679C62.633,30.65,61.548,31.948,61.404,32.125z"/>
	</g>
	<path fill="#FFFFFF" d="M70.038,35.912c4.303-1.512,8.028,0.929,8.73,3.492c0.625,2.275,0.503,5.23,0.562,7.421
		c0.042,1.529,0.94,6.289,0,7.795c-3.872,6.203-12.781,5.985-16.005-0.302c-0.832-1.621-1.195-5.712-0.416-8.272
		C64.263,41.596,66.962,36.993,70.038,35.912z"/>
	<g>
		<path fill="#FCFDF6" d="M60.727,37.502c0,0,0.914-3.659,1.081-5.654c0.166-1.996,0.332-3.825-6.485-4.24
			c-6.818-0.416-17.212,0.083-22.366,5.986c-9.791,11.211-6.984,26.44-1.746,32.51c4.461,5.17,10.946,8.039,17.461,8.979
			c7.482,1.081,21.118-2.161,20.204-8.397c-0.181-1.234-2.495-5.404-5.487-8.73c-2.994-3.326-4.574-5.82-4.49-9.563
			C58.98,44.652,60.727,37.502,60.727,37.502z"/>
		<path fill="#CCCB7E" d="M51.791,75.497L51.791,75.497c-1.138,0-2.198-0.069-3.15-0.207c-7.204-1.04-13.45-4.254-17.589-9.049
			c-5.461-6.328-7.98-21.645,1.748-32.784c4.451-5.099,12.765-6.168,18.955-6.168c1.164,0,2.369,0.038,3.58,0.111
			c3.338,0.204,5.293,0.76,6.151,1.752c0.688,0.795,0.607,1.764,0.529,2.701c-0.167,2.001-1.05,5.549-1.087,5.699
			c-0.018,0.07-1.742,7.171-1.823,10.847c-0.082,3.682,1.496,6.15,4.437,9.417c3.047,3.386,5.352,7.563,5.539,8.84
			c0.19,1.3-0.21,2.534-1.189,3.669C64.987,73.685,57.43,75.497,51.791,75.497z M51.755,27.705c-6.104,0-14.293,1.046-18.643,6.026
			c-9.574,10.965-7.109,26.021-1.745,32.237c4.073,4.72,10.229,7.885,17.333,8.91c0.934,0.135,1.973,0.203,3.09,0.203h0.001
			c5.546,0,12.962-1.763,15.785-5.028c0.897-1.039,1.265-2.161,1.093-3.336c-0.16-1.087-2.345-5.187-5.437-8.621
			c-3.012-3.347-4.628-5.885-4.544-9.706c0.084-3.721,1.818-10.865,1.836-10.937c0.009-0.038,0.912-3.667,1.075-5.622
			c0.075-0.903,0.146-1.743-0.429-2.407c-0.779-0.901-2.643-1.412-5.861-1.608C54.106,27.743,52.91,27.705,51.755,27.705z"/>
	</g>
	<path fill="#FFFFFF" d="M52.233,35.82c-2.667-4.555-11.688-3.338-15.567,1.106c-7.37,8.439-3.433,21.46,0.511,26.029
		c3.358,3.892,6.495,6.182,11.398,6.891c5.633,0.813,10.386-3.132,9.697-7.827c-0.137-0.928-2.638-6.124-3.743-10.717
		C53.017,45.017,54.274,39.307,52.233,35.82z"/>
	<g>
		<path fill="#F8F8EC" d="M71.103,36.8c-1.521,0.619-3.643,1.914-4.819,4.469c-1.177,2.554-3.738,5.623-2.672,9.886
			c0.813,3.246,3.171,6.296,7.414,6.372c3.185,0.058,6.252-1.666,7.136-4.076c0.91-2.482-0.303-5.226-0.19-6.893
			c0.112-1.666-0.1-4.983-0.567-6.5C76.937,38.54,74.686,35.344,71.103,36.8z"/>
		<path fill="#CCCB7E" d="M71.18,57.667c-0.046,0.002-0.104-0.001-0.157-0.002c-3.727-0.066-6.548-2.488-7.546-6.477
			c-0.861-3.443,0.632-6.163,1.831-8.348c0.314-0.572,0.611-1.112,0.85-1.63c1.193-2.593,3.32-3.9,4.894-4.54
			c0.622-0.252,1.24-0.381,1.837-0.381c2.645,0,4.274,2.51,4.648,3.726c0.461,1.496,0.69,4.807,0.573,6.551
			c-0.039,0.573,0.089,1.306,0.224,2.081c0.262,1.505,0.559,3.21-0.041,4.849C77.405,55.913,74.415,57.667,71.18,57.667z
			 M72.888,36.568c-0.561,0-1.144,0.121-1.732,0.361c-1.527,0.621-3.59,1.887-4.746,4.397c-0.243,0.527-0.541,1.072-0.857,1.647
			c-1.238,2.255-2.641,4.811-1.806,8.147c0.966,3.858,3.688,6.202,7.282,6.267l0.15,0.002c3.123,0,6.005-1.677,6.852-3.988
			c0.576-1.568,0.285-3.234,0.029-4.705c-0.139-0.793-0.269-1.541-0.228-2.148c0.116-1.721-0.108-4.982-0.562-6.45
			C76.916,38.946,75.378,36.568,72.888,36.568z"/>
	</g>
	<path opacity="0.8" fill="#FFFFFF" d="M70.615,40.246c-3.827,1.558-5.736,6.737-4.972,9.792c0.582,2.326,2.496,3.95,5.536,3.854
		c4.682-0.149,4.813-5.441,4.894-6.636c0.08-1.194-0.172-3.482-0.379-4.602C75.398,41.045,73.183,39.2,70.615,40.246z"/>
	<g>
		<path fill="#F8F8EC" d="M34.743,50.889c0.18,2.07,1.688,6.526,2.952,8.564c1.663,2.681,5.778,9.291,12.971,8.688
			c2.081-0.175,5.404-1.788,5.487-4.49c0.084-2.702-2.286-8.98-2.744-10.975c-0.457-1.996-1.05-5.57-1.039-7.567
			c0.042-7.565-3.45-9.312-5.196-9.811s-6.485-0.582-8.979,2.661S34.44,47.383,34.743,50.889z"/>
		<path fill="#CCCB7E" d="M49.751,68.318L49.751,68.318c-6.721-0.001-10.542-6.161-12.174-8.793
			c-1.258-2.026-2.785-6.46-2.972-8.625c-0.319-3.691,1.003-9.807,3.479-13.025c2.063-2.684,5.511-2.973,6.896-2.973
			c0.832,0,1.646,0.096,2.232,0.263c2.438,0.696,5.336,2.987,5.297,9.945c-0.011,2.032,0.6,5.629,1.036,7.535
			c0.136,0.591,0.445,1.576,0.804,2.717c0.846,2.69,2.003,6.375,1.943,8.293c-0.084,2.718-3.314,4.432-5.614,4.624
			C50.368,68.306,50.056,68.318,49.751,68.318z M44.979,35.18c-1.344,0-4.687,0.279-6.676,2.864
			c-2.4,3.121-3.729,9.268-3.422,12.833c0.181,2.091,1.715,6.541,2.932,8.503c1.607,2.592,5.371,8.66,11.938,8.661l0,0
			c0.297,0,0.602-0.013,0.903-0.038c2.142-0.18,5.282-1.833,5.36-4.355c0.058-1.872-1.092-5.53-1.932-8.202
			c-0.359-1.146-0.671-2.136-0.809-2.738c-0.439-1.918-1.055-5.544-1.043-7.598c0.037-6.785-2.75-9.007-5.096-9.677
			C46.573,35.272,45.787,35.18,44.979,35.18z"/>
	</g>
	<path fill="#FDFEFC" d="M36.24,52.012c0.144,1.668,1.06,5.673,2.079,7.316c1.34,2.161,3.699,5.944,8.688,5.529
		c1.679-0.14,5.133-1.471,5.446-4.365c0.498-4.614-2.625-8.867-2.994-10.477c-0.368-1.608-0.424-2.132-0.416-3.741
		c0.034-6.1-2.541-8.037-3.949-8.439s-4.682,0.42-6.693,3.035C36.391,43.484,35.996,49.185,36.24,52.012z"/>
	<g>
		<path fill="#F8F8EC" d="M39.888,50.442c-0.492,0.14-1.22,0.531-1.631,1.236c-0.645,1.102-0.801,2.848-0.488,4.095
			c0.312,1.247,1.652,4.511,3.43,6.111c1.82,1.641,4.583,2.557,6.267,2.151c1.684-0.406,4.054-1.186,4.054-4.958
			s-1.622-5.799-2.184-6.766c-0.561-0.967-2.088-2.4-2.712-2.433C45.999,49.85,40.667,50.22,39.888,50.442z"/>
		<path fill="#CCCB7E" d="M46.587,64.271c-1.764,0-3.967-0.917-5.482-2.283c-1.756-1.582-3.128-4.806-3.471-6.18
			c-0.34-1.355-0.128-3.121,0.503-4.199c0.42-0.718,1.16-1.143,1.714-1.3c0.777-0.222,6.111-0.602,6.779-0.566
			c0.729,0.036,2.295,1.587,2.826,2.501c0.069,0.119,0.155,0.257,0.253,0.411c0.681,1.078,1.948,3.085,1.948,6.424
			c0,4.092-2.81,4.768-4.16,5.093C47.224,64.237,46.917,64.271,46.587,64.271z M46.526,50.018c-0.965,0-5.893,0.356-6.6,0.558
			c-0.502,0.143-1.172,0.525-1.551,1.173c-0.598,1.022-0.797,2.7-0.473,3.991c0.336,1.346,1.675,4.5,3.388,6.042
			c1.445,1.303,3.623,2.212,5.296,2.212c0.309,0,0.593-0.031,0.846-0.093c2.05-0.493,3.946-1.419,3.946-4.822
			c0-3.259-1.239-5.221-1.904-6.276c-0.1-0.157-0.188-0.297-0.259-0.42c-0.574-0.988-2.057-2.336-2.6-2.363
			C46.593,50.019,46.563,50.018,46.526,50.018z"/>
	</g>
	<g opacity="0.5">
		<path fill="#D1CF79" d="M40.418,52.677c0.942-1.387,4.646-2.578,7.443,0.419c0.701,0.752,3.069,3.699,1.817,7.074
			c-1.598,4.306-7.163,1.835-8.679-0.177C39.285,57.717,38.703,55.202,40.418,52.677z"/>
		<path fill="#C7BB2F" d="M46.313,62.687c-2.068,0-4.475-1.35-5.424-2.609c-1.977-2.624-2.174-5.14-0.586-7.479
			c0.492-0.727,1.798-1.508,3.499-1.508c1.085,0,2.687,0.332,4.16,1.91c0.54,0.579,3.169,3.649,1.846,7.217
			C49.052,62.258,47.49,62.687,46.313,62.687z M43.803,51.368c-1.528,0-2.802,0.697-3.27,1.387
			c-1.515,2.229-1.319,4.637,0.578,7.154c0.909,1.207,3.216,2.499,5.202,2.499c1.088,0,2.533-0.396,3.234-2.286
			c1.268-3.415-1.267-6.373-1.787-6.932C46.354,51.685,44.832,51.368,43.803,51.368z"/>
	</g>
	<g opacity="0.5">
		<path fill="#D1CF79" d="M71.488,52.747c-1.661,0.224-5.331-0.687-4.964-4.77c0.092-1.024,0.861-5.42,4.211-6.739
			c4.273-1.681,5.11,3.25,4.529,6.732C74.796,50.782,74.514,52.341,71.488,52.747z"/>
		<path fill="#C7BB2F" d="M70.989,52.917c-1.083,0-2.594-0.388-3.59-1.477c-0.801-0.877-1.142-2.046-1.014-3.477
			c0.02-0.218,0.525-5.369,4.299-6.854c1.576-0.62,2.847-0.406,3.705,0.607c1.27,1.499,1.338,4.318,1.012,6.276
			c-0.465,2.787-0.746,4.469-3.895,4.892C71.347,52.906,71.172,52.917,70.989,52.917z M72.323,41.038
			c-0.463,0-0.98,0.111-1.537,0.33c-3.615,1.423-4.119,6.569-4.123,6.621c-0.121,1.35,0.195,2.447,0.941,3.264
			c0.935,1.022,2.361,1.387,3.385,1.387c0.17,0,0.332-0.01,0.48-0.03c2.946-0.396,3.199-1.91,3.658-4.661
			c0.342-2.051,0.181-4.717-0.949-6.052C73.696,41.327,73.071,41.038,72.323,41.038z"/>
	</g>
	<g>
		<path fill="#F8F8EC" d="M39.077,42.086c0.676-1.258,1.736-2.119,2.494-2.433c0.78-0.322,2.609-0.582,3.919,0.51
			c1.31,1.091,2.505,3.887,2.567,4.979c0.062,1.091,0.093,3.606-0.572,4.334c-0.416,0.455-1.782,0.507-3.809,0.569
			c-2.027,0.062-3.539,0.49-4.225,0.272c-0.687-0.219-1.497-0.811-1.528-2.65S38.314,43.505,39.077,42.086z"/>
		<path fill="#CCCB7E" d="M39.96,50.518c-0.227,0-0.406-0.022-0.551-0.068c-1.052-0.335-1.599-1.271-1.624-2.78
			c-0.034-1.98,0.447-4.304,1.17-5.649c0.731-1.361,1.839-2.194,2.563-2.494c0.439-0.182,1.044-0.29,1.617-0.29
			c0.665,0,1.629,0.142,2.443,0.821c1.324,1.104,2.549,3.903,2.616,5.077c0.048,0.832,0.145,3.612-0.607,4.435
			c-0.442,0.485-1.708,0.547-3.907,0.615c-0.889,0.026-1.662,0.123-2.345,0.208C40.796,50.459,40.328,50.518,39.96,50.518z
			 M43.136,39.513c-0.538,0-1.104,0.1-1.512,0.269c-0.736,0.304-1.771,1.155-2.424,2.369c-0.703,1.307-1.17,3.574-1.138,5.513
			c0.024,1.397,0.491,2.222,1.431,2.521c0.323,0.103,0.979,0.035,1.809-0.068c0.654-0.082,1.469-0.183,2.37-0.211
			c1.858-0.057,3.326-0.102,3.712-0.523c0.539-0.591,0.625-2.649,0.535-4.232c-0.063-1.101-1.266-3.837-2.518-4.88
			C44.651,39.645,43.755,39.513,43.136,39.513z"/>
	</g>
	<g opacity="0.7">
		<path fill="#C3C94B" d="M40.716,41.926c0.849-0.752,3.052-1.902,4.837,0.175c0.458,0.533,1.421,1.862,0.663,4.155
			c-1.102,3.335-4.82,2.311-5.754,1.111C39.438,46.052,38.999,43.448,40.716,41.926z"/>
		<path fill="#C7BB2F" d="M43.241,48.791c-1.329,0-2.515-0.63-2.998-1.253c-1.074-1.38-1.571-4.171,0.289-5.819
			c0.584-0.519,1.594-1.073,2.672-1.073c0.971,0,1.832,0.429,2.56,1.275c1.3,1.513,1.106,3.241,0.716,4.422
			C45.776,48.473,44.148,48.791,43.241,48.791z M43.204,41.201c-0.923,0-1.795,0.482-2.305,0.933
			c-1.604,1.424-1.158,3.855-0.219,5.063c0.397,0.511,1.463,1.038,2.561,1.038c0.926,0,2.146-0.358,2.711-2.066
			c0.503-1.521,0.298-2.83-0.61-3.886C44.726,41.565,44.007,41.201,43.204,41.201z"/>
	</g>
	<g opacity="0.7">
		<path fill="#CED169" d="M42.944,56.085c0.617-0.95,3.055-2.323,5.394-0.031c0.502,0.492,1.69,1.742,0.811,3.991
			c-1.122,2.868-4.866,1.979-5.8,0.779C42.325,59.508,41.665,58.05,42.944,56.085z"/>
		<path fill="#C7BB2F" d="M46.226,62.239c-1.233,0-2.535-0.523-3.096-1.244c-1-1.285-1.831-2.892-0.419-5.062
			c0.456-0.7,1.589-1.41,2.874-1.41c1.038,0,2.058,0.46,2.947,1.332c0.456,0.448,1.846,1.81,0.875,4.291
			C48.694,61.967,47.108,62.239,46.226,62.239z M45.585,55.079c-1.206,0-2.117,0.71-2.408,1.157
			c-1.219,1.873-0.532,3.23,0.391,4.417c0.395,0.507,1.496,1.03,2.658,1.03c0.741,0,2.072-0.227,2.664-1.74
			c0.75-1.917-0.066-3.024-0.746-3.691C47.349,55.474,46.487,55.079,45.585,55.079z"/>
	</g>
	<g opacity="0.7">
		<path fill="#C3C94B" d="M68.057,46.737c0.572-0.979,2.939-2.468,5.386-0.291c0.525,0.468,1.773,1.658,1.003,3.947
			c-0.983,2.919-4.765,2.212-5.755,1.059C67.604,50.186,66.874,48.761,68.057,46.737z"/>
		<path fill="#C7BB2F" d="M71.413,52.73c-1.172,0-2.379-0.451-2.934-1.098c-1.061-1.235-1.969-2.8-0.662-5.036
			c0.363-0.623,1.457-1.551,2.975-1.551c0.991,0,1.945,0.401,2.836,1.193c0.477,0.425,1.93,1.719,1.08,4.243
			C74.228,51.911,73.026,52.73,71.413,52.73z M70.792,45.601c-1.275,0-2.207,0.783-2.496,1.277
			c-1.127,1.929-0.375,3.251,0.604,4.393c0.376,0.438,1.386,0.904,2.513,0.904c0.799,0,2.221-0.242,2.77-1.87
			c0.656-1.95-0.213-3.018-0.924-3.651C72.474,45.955,71.644,45.601,70.792,45.601z"/>
	</g>
</g>
<g>
</g>
<g>
</g>
<g>
</g>
<g>
</g>
<g>
</g>
<g>
</g>
</svg>
