<?xml version="1.0" encoding="utf-8"?>
<!-- Generator: Adobe Illustrator 16.0.0, SVG Export Plug-In . SVG Version: 6.00 Build 0)  -->
<!DOCTYPE svg PUBLIC "-//W3C//DTD SVG 1.1//EN" "http://www.w3.org/Graphics/SVG/1.1/DTD/svg11.dtd">
<svg version="1.1" id="Layer_1" xmlns="http://www.w3.org/2000/svg" xmlns:xlink="http://www.w3.org/1999/xlink" x="0px" y="0px"
	 width="103.244px" height="118.855px" viewBox="0 0 103.244 118.855" enable-background="new 0 0 103.244 118.855"
	 xml:space="preserve">
<g>
	<g>
		<path fill="#E5E4B7" d="M15.986,110.482c0,0-1.093-0.556-1.629-0.613s-1.054-0.206-1.273-1.124s0.026-1.621-1.105-1.996
			c-1.131-0.375-1.757,0.077-2.429-1.202c-0.673-1.279-1.682-1.344-1.952-1.402c-0.271-0.058-0.355-0.549-0.414-1.337
			c-0.059-0.789-0.581-0.2-1.047-0.679c-0.466-0.478-0.259-1.267-0.491-2.3c-0.232-1.034-1.39,0.213-1.577-2.268
			c-0.188-2.482-0.169-4.483-0.718-8.311C0.859,71.895-4.138,60.853,8.782,39.663C17.857,24.78,32.477,17.734,39.665,15.62
			c13.854-4.073,27.722-0.876,35.931-3.688c8.21-2.813,13.046-4.984,18.221-11.653c0.333,0.181,0.282,0.45,0.64,0.69
			c0.675,0.454,1.814,0.538,2.717,1.298c0.643,0.542,1.025,1.271,1.588,1.762c0.408,0.357,0.648,0.777,0.967,1.055
			c0.352,0.309,0.768,0.464,0.961,0.611c-2.626,2.588-5.562,7.949-6.725,12.979c-1.162,5.03-0.744,11.961,0.4,15.101
			c1.145,3.141,8.119,14.625,8.557,26.499c0.438,11.873-2.414,20.374-4.139,24.318c-1.725,3.945-10.855,20.32-23.988,26.088
			c-18.944,8.318-37.082,6.951-40.127,7.113c-3.043,0.162-4.93,0.402-5.938,0.602c-1.008,0.201-4.652,0.519-4.834-0.846
			c-0.181-1.363-0.601-1.698-1.551-2.034c-0.949-0.337-2.022-0.982-2.811-1.454c-0.788-0.471-1.377-0.73-1.422-1.402
			s-0.098-0.871-0.659-1.428C16.891,110.676,15.986,110.482,15.986,110.482z"/>
	</g>
	<g>
		<path fill="#EAE4C3" d="M26.745,116.703c3.898-0.698,13.777-2.562,19.431-2.897c32.373-1.924,43.724-21.858,48.884-37.674
			c6.168-18.907-0.76-39.229-1.972-44.172c-2.189-8.927,0.644-18.558,7.601-26.265c-1.169-1.055-5.283-4.623-6.872-5.417
			c-1.482,2.947-9.565,9.34-12.796,10.986c-1.432,0.73-3.008,1.471-4.574,2.088c-5.415,2.133-13.88,3.311-21.866,4.023
			c-6.724,0.599-18.99,3.672-28.036,11.273C17.499,36.25,4.319,48.226,5.188,70.854c0.274,7.148,0.163,10.991,0.177,15.347
			s1.341,13.76,1.341,13.76l3.857,3.324l10.818,6.347C21.382,109.631,25.23,116.975,26.745,116.703z"/>
		<path fill="#CCCB7E" d="M100.897,5.684c-0.003-0.056-0.027-0.107-0.068-0.144c-0.064-0.058-0.138-0.123-0.215-0.192
			c-0.121,0.077-0.275,0.079-0.393-0.071c-0.026-0.033-0.056-0.064-0.082-0.097c-0.079,0.014-0.16,0.003-0.229-0.044
			c-0.279-0.197-0.594-0.417-0.591-0.795c-0.034-0.033-0.069-0.065-0.101-0.102c-0.066-0.082-0.132-0.181-0.223-0.237
			c-0.081-0.05-0.128-0.116-0.15-0.188c-0.937-0.794-2.014-1.681-2.974-2.407c-0.051,0.014-0.107,0.017-0.169,0.005
			c-0.34-0.07-0.681-0.158-0.967-0.316c1.816,1.263,4.633,3.701,5.658,4.615c-6.963,7.798-9.699,17.371-7.51,26.299
			c0.126,0.515,0.31,1.18,0.542,2.021c1.898,6.878,6.942,25.15,1.434,42.037c-7.753,23.768-23.683,36.043-48.698,37.53
			c-5.13,0.306-13.629,1.846-18.194,2.673l-1.26,0.228c-0.016,0.003-0.032,0.005-0.048,0.005c-1.051,0-3.684-4.273-5.096-6.968
			c-0.018-0.034-0.045-0.063-0.078-0.083l-10.803-6.338l-3.783-3.26C6.774,98.942,5.587,90.283,5.573,86.2
			c-0.003-1.049,0.001-2.067,0.006-3.109c0.013-3.35,0.025-6.813-0.183-12.244c-0.898-23.399,13.53-35.524,21.282-42.038
			c8.585-7.214,20.406-10.556,27.92-11.226c10.156-0.905,17.328-2.226,21.924-4.036c1.412-0.557,2.957-1.262,4.593-2.096
			C84.483,9.733,92.19,3.582,93.901,0.559c0.173,0.096,0.372,0.223,0.584,0.365c-0.186-0.158-0.331-0.367-0.406-0.651
			c-0.01-0.035-0.012-0.067-0.012-0.098c-0.056-0.03-0.107-0.058-0.158-0.083c-0.104-0.051-0.228-0.01-0.279,0.093
			c-1.406,2.795-9.326,9.173-12.704,10.895c-1.623,0.828-3.156,1.528-4.556,2.08c-4.559,1.795-11.691,3.106-21.809,4.008
			c-7.574,0.675-19.492,4.046-28.151,11.322c-7.806,6.56-22.337,18.769-21.43,42.372c0.208,5.422,0.194,8.881,0.182,12.227
			c-0.004,1.043-0.009,2.063-0.005,3.113c0.014,4.319,1.328,13.693,1.342,13.787c0.008,0.051,0.032,0.097,0.07,0.13l3.858,3.323
			c0.009,0.009,0.02,0.016,0.03,0.022l10.767,6.316c0.499,0.948,3.823,7.138,5.437,7.138c0.041,0,0.082-0.004,0.121-0.011
			l1.261-0.228c4.558-0.826,13.04-2.363,18.146-2.668c25.205-1.498,41.256-13.867,49.068-37.816
			c5.549-17.006,0.48-35.365-1.428-42.276c-0.231-0.838-0.414-1.5-0.539-2.009c-2.171-8.851,0.582-18.354,7.554-26.076
			C100.881,5.793,100.899,5.739,100.897,5.684z"/>
	</g>
	<g>
		<path fill="#ECEACC" d="M96.133,1.654c0,0-12.376,11.003-21.593,14.082c-4.003,1.337-13.781,4.196-19.416,5.465
			c-16.542,3.724-28.715,11.791-36.273,22.17C5.112,62.234,8.505,79.89,8.353,96.51c-0.03,3.294,6.385,7.252,6.385,7.252
			s11.465,12.824,13.559,11.002s11.747-3.162,14.875-3.627c3.127-0.466,17.116-1.729,26.809-8.813
			c9.691-7.083,14-14.393,16.39-19.897c2.39-5.506,5.181-16.414,4.92-25.628c-0.26-9.214-3.062-28.699,0.659-39.181
			c1.7-4.791,3.284-8.181,7.335-13.047C98.275,3.844,96.133,1.654,96.133,1.654z"/>
		<path fill="#CCCB7E" d="M99.405,4.402c-0.554-0.399-1.469-1.261-2.166-1.94c-0.475-0.246-0.925-0.537-1.317-0.899
			c-1.019,0.894-12.734,11.065-21.448,13.976c-3.992,1.334-13.766,4.192-19.396,5.46c-15.8,3.557-28.385,11.251-36.395,22.25
			C7.239,58.961,7.634,73.696,8.017,87.946c0.075,2.822,0.153,5.739,0.128,8.563c-0.03,3.299,5.948,7.097,6.458,7.415
			c0.635,0.709,10.11,11.226,13.159,11.227h0.001c0.271,0,0.496-0.077,0.67-0.229c1.938-1.687,10.86-3.002,14.22-3.497l0.549-0.082
			c0.278-0.041,0.644-0.089,1.084-0.146c4.635-0.607,16.948-2.221,25.817-8.702c7.672-5.608,13.055-12.145,16.458-19.983
			c2.138-4.925,5.216-15.836,4.937-25.717c-0.061-2.157-0.256-4.82-0.483-7.903c-0.72-9.795-1.706-23.21,1.131-31.202
			c1.729-4.874,3.333-8.22,7.299-12.983c0.037-0.044,0.054-0.102,0.047-0.16C99.482,4.487,99.452,4.436,99.405,4.402z M98.983,4.606
			c-3.903,4.723-5.506,8.08-7.231,12.942c-2.866,8.074-1.876,21.54-1.153,31.372c0.227,3.078,0.422,5.736,0.482,7.884
			c0.245,8.688-2.343,19.642-4.902,25.54c-3.373,7.77-8.712,14.25-16.322,19.813c-8.783,6.42-21.02,8.023-25.625,8.626
			c-0.443,0.059-0.811,0.106-1.092,0.148l-0.549,0.081c-3.711,0.547-12.402,1.828-14.432,3.595
			c-0.098,0.085-0.227,0.126-0.396,0.126l0,0c-2.904-0.001-12.771-10.998-12.87-11.109c-0.013-0.016-0.028-0.028-0.046-0.039
			c-0.063-0.039-6.314-3.934-6.286-7.072c0.026-2.831-0.052-5.752-0.128-8.578c-0.381-14.18-0.773-28.842,10.586-44.441
			c7.949-10.916,20.45-18.554,36.15-22.089c5.644-1.271,15.436-4.134,19.437-5.471c8.608-2.875,20.081-12.74,21.517-13.993
			c0.284,0.287,0.955,0.959,1.641,1.599c0.12-0.063,0.27-0.06,0.392,0.067c0.101,0.104,0.224,0.168,0.351,0.234
			c0.156,0.081,0.297,0.168,0.437,0.275c0.144,0.11,0.126,0.343,0.022,0.474C98.97,4.595,98.978,4.601,98.983,4.606z"/>
	</g>
	<g>
		<path fill="#EFEEDC" d="M98.179,3.369c0,0-7.385,8.24-9.865,19.29c-0.871,3.884-2.907,16.059-2.751,23.415
			c0.156,7.357,3.39,28.088-16.005,47.703c-15.238,15.411-33.716,12.613-40.629,17.945c-3.563,2.747-14.498-9.529-17.523-15.551
			c0.909-12.995-1.516-29.584,6.206-42.242c8.863-14.527,18.077-20.881,41.423-27.747c9.445-2.778,15.483-7.37,21.069-10.646
			c8.083-4.741,16.175-13.368,16.175-13.368L98.179,3.369z"/>
		<path fill="#CCCB7E" d="M27.68,112.325c-4.593,0-13.734-10.634-16.46-16.061l-0.025-0.052l0.004-0.057
			c0.225-3.217,0.244-6.612,0.266-10.206c0.063-10.576,0.133-22.563,5.97-32.129c9.009-14.767,18.327-21.011,41.541-27.838
			c7.459-2.193,12.771-5.513,17.457-8.441c1.237-0.772,2.405-1.503,3.566-2.185c7.964-4.67,16.048-13.245,16.128-13.331l0.118-0.126
			l2.253,1.425l-0.164,0.183c-0.073,0.083-7.377,8.33-9.816,19.197c-0.759,3.385-2.908,15.707-2.746,23.364
			c0.016,0.699,0.058,1.512,0.106,2.453c0.467,8.957,1.438,27.593-16.171,45.4c-9.795,9.906-20.697,12.273-29.459,14.175
			c-4.689,1.019-8.738,1.897-11.191,3.788C28.679,112.176,28.216,112.325,27.68,112.325z M11.618,96.127
			c2.65,5.23,11.705,15.78,16.062,15.78c0.442,0,0.819-0.118,1.122-0.352c2.526-1.948,6.619-2.837,11.357-3.866
			c8.707-1.89,19.543-4.242,29.25-14.061C86.889,75.953,85.925,57.44,85.461,48.544c-0.05-0.945-0.092-1.761-0.106-2.466
			c-0.164-7.696,1.994-20.068,2.757-23.465c2.259-10.07,8.776-18.103,9.873-19.392L96.458,2.18
			c-1.034,1.081-8.762,9.144-16.249,13.536c-1.156,0.678-2.322,1.407-3.557,2.178c-4.709,2.942-10.047,6.278-17.56,8.488
			C35.998,33.174,26.733,39.377,17.79,54.037c-5.777,9.468-5.848,21.393-5.91,31.916C11.859,89.532,11.839,92.915,11.618,96.127z"/>
	</g>
	<g>
		<path fill="#F7F6E4" d="M97.8,1.821c-6.957,8.899-15.562,26.945-17.653,43.206c-1.794,13.95,0.296,29.375-18.602,47.639
			c-8.584,8.296-30.772,14.465-32.391,15.394c-1.909,1.096-5.913-4.331-5.913-4.331l-8.53-6.822c0,0-0.425-22.267,4.88-32.07
			c13.623-25.185,25.216-28.417,35.605-32.664c9.709-3.969,15.384-6.452,23.318-12.663C84.652,14.706,89.434,11.289,97.8,1.821z"/>
		<path fill="#CCCB7E" d="M97.511,2.375c-0.106-0.062-0.214-0.121-0.323-0.177C89.879,10.403,85.321,13.95,80.062,18.04
			c-0.549,0.427-1.106,0.861-1.676,1.306c-7.959,6.231-13.738,8.738-23.269,12.633c-0.686,0.28-1.376,0.556-2.072,0.834
			c-9.786,3.908-20.878,8.336-33.637,31.923c-5.271,9.74-4.909,31.95-4.905,32.174c0.001,0.061,0.029,0.119,0.078,0.158l8.51,6.806
			c0.285,0.383,3.427,4.54,5.49,4.54c0.248,0,0.477-0.059,0.677-0.174c0.321-0.185,1.601-0.621,3.369-1.227
			c6.655-2.275,22.241-7.605,29.063-14.198C77.587,77.452,78.7,63.895,79.684,51.934c0.195-2.38,0.38-4.629,0.67-6.88
			c2.021-15.722,10.313-33.515,17.245-42.625C97.569,2.412,97.54,2.392,97.511,2.375z M79.94,45
			c-0.291,2.261-0.477,4.514-0.672,6.899c-0.977,11.888-2.084,25.36-17.869,40.616c-6.754,6.528-22.277,11.837-28.907,14.104
			c-1.858,0.636-3.085,1.056-3.441,1.26c-0.139,0.08-0.292,0.119-0.47,0.119c-1.908,0-5.14-4.35-5.172-4.394
			c-0.011-0.015-0.023-0.028-0.037-0.039l-8.455-6.761c-0.021-1.616-0.184-22.555,4.857-31.87
			C32.462,41.48,43.479,37.082,53.199,33.201c0.697-0.278,1.39-0.555,2.076-0.835c9.563-3.909,15.364-6.426,23.367-12.691
			c0.569-0.445,1.126-0.879,1.675-1.306c4.754-3.697,8.936-6.95,15.084-13.583C88.885,14.459,81.792,30.599,79.94,45z"/>
	</g>
	<g>
		<path fill="#FEFDEF" d="M27.778,105.608c0,0,13.898-5.256,20.74-10.433s15.635-11.866,20.44-24.765
			c4.484-12.035,3.385-15.545,5.243-23.78c2.584-11.444,13.778-30.676,14.98-34.166c-3.238,2.656-11.545,11.058-20.397,17.754
			c-19.17,14.496-27.544,13.838-40.097,32.779c-7.987,12.054-11.264,33.164-11.264,33.164l2.482,9.35L27.778,105.608z"/>
		<path fill="#CCCB7E" d="M27.778,105.817c-0.001,0-0.002,0-0.003,0l-7.87-0.096c-0.094-0.002-0.176-0.064-0.199-0.155l-2.482-9.35
			c-0.008-0.028-0.01-0.057-0.005-0.086c0.032-0.211,3.376-21.293,11.296-33.246c8.367-12.625,14.902-16.582,23.947-22.057
			c4.582-2.773,9.774-5.917,16.197-10.774c5.988-4.529,11.67-9.787,15.816-13.625c1.97-1.822,3.525-3.262,4.574-4.123
			c0.072-0.059,0.175-0.063,0.251-0.01c0.077,0.053,0.108,0.15,0.078,0.239c-0.361,1.049-1.566,3.409-3.233,6.675
			c-3.954,7.743-9.929,19.445-11.74,27.468c-0.637,2.821-0.929,5.117-1.211,7.337c-0.561,4.397-1.09,8.55-4.04,16.47
			C64.31,83.489,55.255,90.339,48.644,95.341c-6.787,5.136-20.652,10.409-20.792,10.462
			C27.828,105.812,27.804,105.817,27.778,105.817z M20.068,105.306l7.673,0.093c0.797-0.304,14.082-5.42,20.651-10.39
			c6.57-4.972,15.568-11.779,20.372-24.671c2.934-7.875,3.459-12.006,4.016-16.378c0.285-2.229,0.578-4.535,1.219-7.375
			c1.822-8.075,7.813-19.804,11.775-27.566c1.281-2.509,2.347-4.596,2.899-5.851c-0.997,0.865-2.319,2.089-3.915,3.564
			c-4.154,3.845-9.843,9.11-15.849,13.652c-6.44,4.87-11.643,8.02-16.232,10.798c-8.999,5.447-15.501,9.383-23.815,21.93
			c-7.7,11.62-11.053,31.963-11.225,33.038L20.068,105.306z"/>
	</g>
	<g>
		<path fill="#FFFEF9" d="M81.229,24.065c-9.446,9.294-20.059,17.291-27.098,22.355c-7.113,5.119-14.224,9.645-22.664,21.98
			C23.315,80.317,19.722,97.099,19.47,98.01s2.86,2.817,4.508,5.195c23.252-7.313,32.37-23.385,38.003-34.138
			C66.413,60.606,68.685,43.595,81.229,24.065z"/>
		<path fill="#CCCB7E" d="M23.978,103.413c-0.066,0-0.131-0.031-0.171-0.089c-0.749-1.081-1.795-2.053-2.718-2.909
			c-1.154-1.073-1.988-1.848-1.82-2.46c0.02-0.066,0.056-0.22,0.111-0.45c1.623-6.781,5.33-19.595,11.916-29.221
			C39.088,56.895,45.813,52.1,52.317,47.462c0.565-0.403,1.129-0.805,1.693-1.211c10.949-7.878,19.805-15.184,27.072-22.335
			c0.075-0.074,0.195-0.08,0.277-0.013c0.082,0.067,0.102,0.185,0.044,0.274c-8.23,12.813-12.103,24.76-14.929,33.483
			c-1.493,4.607-2.783,8.588-4.311,11.504c-4.877,9.31-13.954,26.638-38.125,34.238C24.02,103.411,23.999,103.413,23.978,103.413z
			 M80.116,25.439c-7.041,6.775-15.52,13.709-25.862,21.151c-0.564,0.406-1.129,0.809-1.694,1.211
			c-6.475,4.616-13.17,9.391-20.92,20.717c-6.548,9.571-10.238,22.33-11.855,29.084c-0.057,0.237-0.095,0.395-0.113,0.464
			c-0.102,0.368,0.814,1.22,1.701,2.043c0.903,0.839,1.922,1.785,2.688,2.852c23.898-7.573,32.897-24.752,37.736-33.989
			c1.512-2.885,2.796-6.85,4.283-11.439C68.804,49.125,72.495,37.731,80.116,25.439z"/>
	</g>
	<g>
		<path fill="#FFFFFF" d="M61.864,49.373c-6.17,6.251-13.006,11.729-17.529,15.212c-4.572,3.52-9.118,6.664-14.793,14.798
			c-5.482,7.857-8.361,18.606-8.552,19.191c-0.19,0.586,1.722,2.041,2.639,3.478c13.813-5.979,20.728-16.449,24.616-23.469
			C51.306,73.057,53.381,62.216,61.864,49.373z"/>
		<path fill="#CCCB7E" d="M23.629,102.26c-0.069,0-0.137-0.035-0.176-0.097c-0.385-0.603-0.96-1.221-1.468-1.767
			c-0.777-0.834-1.34-1.438-1.193-1.888c0.014-0.042,0.042-0.138,0.084-0.283c1.269-4.353,4.059-12.605,8.494-18.963
			c5.244-7.515,9.567-10.816,13.75-14.01c0.362-0.277,0.725-0.554,1.088-0.833c7.036-5.417,12.763-10.387,17.508-15.194
			c0.076-0.076,0.196-0.083,0.279-0.015c0.084,0.067,0.102,0.187,0.043,0.276c-5.563,8.421-8.416,16.123-10.5,21.746
			c-1.103,2.975-2.054,5.543-3.11,7.45c-4.022,7.263-10.962,17.606-24.716,23.56C23.685,102.254,23.657,102.26,23.629,102.26z
			 M60.645,50.883c-4.481,4.397-9.794,8.949-16.183,13.868c-0.363,0.279-0.727,0.557-1.09,0.834
			c-4.156,3.174-8.453,6.456-13.66,13.917c-4.401,6.309-7.175,14.513-8.436,18.841c-0.045,0.152-0.074,0.252-0.088,0.296
			c-0.07,0.218,0.606,0.944,1.102,1.476c0.479,0.515,1.018,1.092,1.416,1.677c13.533-5.913,20.38-16.128,24.357-23.31
			c1.041-1.88,1.988-4.435,3.084-7.393C53.104,65.81,55.735,58.706,60.645,50.883z"/>
	</g>
	<path fill="#E8E1BF" d="M29.833,110.855c0.271-2.724-0.193-5.321-4.421-9.575c-3.652-3.677-7.435-4.914-11.244-5.814
		c-5.608-1.326-8.755,3.329-8.522,4.363c0.232,1.033,0.025,1.822,0.491,2.3c0.466,0.479,0.988-0.11,1.047,0.679
		c0.059,0.788,0.143,1.279,0.414,1.337c0.271,0.059,1.279,0.123,1.952,1.402c0.672,1.279,1.298,0.827,2.429,1.202
		c1.132,0.375,0.886,1.078,1.105,1.996s0.737,1.066,1.273,1.124s1.629,0.613,1.629,0.613s0.904,0.194,1.467,0.749
		c0.562,0.557,0.614,0.756,0.659,1.428s0.634,0.932,1.422,1.402c0.788,0.472,1.861,1.117,2.811,1.454
		c0.95,0.336,1.37,0.671,1.551,2.034c0.182,1.364,2.02,0.246,2.828-0.388C28.429,115.824,29.479,114.415,29.833,110.855z"/>
	<path fill="#D3D19D" d="M24.445,111.424c-0.764-2.569-2.327-4.23-4.538-5.912c-2.476-1.882-5.164-3.661-6.951-4.502
		c-3.54-1.666-5.831,1.008-5.772,1.797c0.059,0.788,0.143,1.279,0.414,1.337c0.271,0.059,1.279,0.123,1.952,1.402
		c0.672,1.279,1.298,0.827,2.429,1.202c1.132,0.375,0.886,1.078,1.105,1.996s0.737,1.066,1.273,1.124s1.629,0.613,1.629,0.613
		s0.904,0.194,1.467,0.749c0.562,0.557,0.614,0.756,0.659,1.428s0.634,0.932,1.422,1.402c0.788,0.472,2.906,2.163,3.874,1.88
		C24.966,115.485,25.134,113.738,24.445,111.424z"/>
	<path fill="#C6BC91" d="M23.682,114.583c-1.188-2.127-2.861-3.655-4.696-4.293c-0.398-0.138-0.625-0.505-0.916-0.809
		c-0.611-0.635-1.506-0.684-2.255-1.111c-0.958-0.548-1.465-1.126-1.944-2.152c-0.334-0.72-0.57-0.927-1.188-1.456
		c-0.421-0.36-1.317-1.81-1.843-2.038c-0.822-0.359-2.592-1.25-3.285-0.764c-0.243,0.17-0.379,0.72-0.37,0.848
		c0.059,0.788,0.143,1.279,0.414,1.337c0.271,0.059,1.279,0.123,1.952,1.402c0.672,1.279,1.298,0.827,2.429,1.202
		c1.132,0.375,0.886,1.078,1.105,1.996s0.737,1.066,1.273,1.124s1.629,0.613,1.629,0.613s0.904,0.194,1.467,0.749
		c0.562,0.557,0.614,0.756,0.659,1.428s0.634,0.932,1.422,1.402c0.788,0.472,2.924,1.544,3.874,1.88
		C23.597,116.008,24.069,115.278,23.682,114.583z"/>
	<path fill="#CCCB7E" d="M26.611,118.855c-1.847,0-2.881-0.438-2.991-1.269c-0.168-1.266-0.527-1.513-1.367-1.811
		c-0.96-0.338-2.035-0.982-2.82-1.451l-0.041-0.025c-0.091-0.055-0.18-0.105-0.264-0.155c-0.667-0.39-1.243-0.726-1.293-1.466
		c-0.041-0.611-0.064-0.742-0.577-1.25c-0.496-0.489-1.321-0.673-1.33-0.675c-0.023-0.005-0.046-0.013-0.067-0.023
		c-0.291-0.148-1.135-0.542-1.533-0.585c-0.636-0.069-1.26-0.278-1.513-1.336c-0.056-0.23-0.083-0.449-0.108-0.643
		c-0.075-0.596-0.117-0.924-0.814-1.154c-0.321-0.107-0.596-0.141-0.862-0.174c-0.613-0.076-1.192-0.147-1.726-1.162
		c-0.551-1.048-1.333-1.184-1.667-1.242c-0.038-0.007-0.071-0.012-0.097-0.018c-0.485-0.104-0.571-0.753-0.633-1.59
		c-0.012-0.154-0.042-0.193-0.042-0.193c-0.013-0.004-0.089-0.006-0.141-0.008c-0.201-0.006-0.506-0.015-0.786-0.303
		c-0.361-0.371-0.395-0.853-0.435-1.41c-0.021-0.307-0.046-0.653-0.13-1.023c-0.053-0.234-0.133-0.255-0.373-0.315
		c-0.569-0.144-1.09-0.405-1.209-1.992c-0.053-0.692-0.089-1.334-0.127-2.013c-0.096-1.734-0.195-3.527-0.59-6.279
		c-0.386-2.687-0.832-5.221-1.262-7.672c-2.368-13.469-4.238-24.106,6.732-42.1c8.246-13.523,21.875-21.469,31.041-24.165
		c7.598-2.233,15.168-2.292,21.847-2.343c5.573-0.042,10.386-0.08,14.072-1.342C83.235,9.021,88.31,6.921,93.597,0.107
		C93.681,0,93.829-0.031,93.949,0.034c0.233,0.127,0.335,0.293,0.417,0.426c0.066,0.108,0.118,0.193,0.245,0.278
		c0.248,0.167,0.593,0.287,0.957,0.414c0.569,0.197,1.214,0.422,1.783,0.902c0.36,0.304,0.636,0.652,0.901,0.989
		c0.229,0.288,0.443,0.56,0.689,0.776c0.234,0.205,0.418,0.428,0.578,0.625c0.133,0.162,0.258,0.315,0.39,0.431
		c0.197,0.173,0.419,0.293,0.615,0.399c0.13,0.071,0.242,0.131,0.331,0.199c0.064,0.049,0.104,0.123,0.109,0.203
		c0.006,0.081-0.024,0.159-0.082,0.216c-2.762,2.722-5.559,8.124-6.648,12.844c-1.156,5.002-0.723,11.891,0.39,14.943
		c0.235,0.647,0.735,1.679,1.368,2.987c2.396,4.949,6.857,14.161,7.205,23.597c0.441,11.973-2.418,20.451-4.161,24.439
		c-2.194,5.02-11.338,20.612-24.132,26.23c-10.779,4.733-23.127,7.134-36.697,7.134c-0.619,0-1.172-0.004-1.656-0.007
		c-0.375-0.003-0.708-0.005-0.996-0.005c-0.408,0-0.678,0.004-0.873,0.015c-3.439,0.184-5.172,0.453-5.899,0.598
		C28.315,118.761,27.463,118.855,26.611,118.855z M16.081,110.219c0.188,0.045,1.014,0.269,1.566,0.814
		c0.612,0.605,0.691,0.86,0.741,1.607c0.029,0.427,0.351,0.634,1.019,1.023c0.087,0.051,0.177,0.104,0.27,0.158l0.041,0.025
		c0.766,0.457,1.813,1.084,2.72,1.405c1.04,0.367,1.537,0.781,1.733,2.26c0.065,0.493,0.978,0.786,2.44,0.786
		c0.81,0,1.638-0.091,2.063-0.176c0.742-0.147,2.504-0.422,5.979-0.607c0.205-0.011,0.483-0.016,0.902-0.016
		c0.289,0,0.624,0.002,1,0.005c0.482,0.003,1.035,0.007,1.652,0.007c13.494,0,25.766-2.385,36.475-7.087
		c5.496-2.413,11.085-7.131,16.164-13.644c4.146-5.313,6.838-10.369,7.682-12.3c1.725-3.945,4.553-12.335,4.115-24.198
		c-0.344-9.319-4.771-18.462-7.149-23.375c-0.64-1.321-1.146-2.365-1.391-3.039c-1.14-3.126-1.587-10.162-0.41-15.258
		c1.079-4.668,3.804-10,6.549-12.859C100.034,5.64,99.78,5.5,99.544,5.293c-0.166-0.146-0.306-0.316-0.453-0.497
		c-0.154-0.189-0.314-0.384-0.514-0.559c-0.285-0.25-0.526-0.555-0.76-0.85c-0.249-0.315-0.507-0.642-0.824-0.909
		c-0.49-0.415-1.059-0.612-1.607-0.803c-0.399-0.14-0.777-0.271-1.085-0.478c-0.226-0.152-0.327-0.316-0.407-0.448
		c-0.016-0.024-0.029-0.047-0.043-0.067c-5.314,6.75-10.427,8.86-18.164,11.51c-3.773,1.292-8.627,1.329-14.248,1.372
		c-6.643,0.051-14.172,0.109-21.694,2.32C30.673,18.554,17.183,26.419,9.02,39.807C-1.843,57.622,0.013,68.168,2.36,81.522
		c0.432,2.455,0.877,4.993,1.265,7.689c0.397,2.775,0.499,4.58,0.595,6.326c0.038,0.677,0.073,1.315,0.125,2.002
		c0.1,1.32,0.451,1.41,0.792,1.496c0.274,0.069,0.651,0.164,0.78,0.731c0.092,0.411,0.118,0.78,0.141,1.106
		c0.035,0.485,0.06,0.837,0.278,1.062c0.118,0.121,0.226,0.13,0.405,0.136c0.234,0.008,0.668,0.021,0.719,0.715
		c0.061,0.818,0.146,1.046,0.207,1.092c0.011,0.001,0.035,0.004,0.065,0.01c0.379,0.065,1.386,0.241,2.063,1.53
		c0.398,0.758,0.72,0.798,1.303,0.87c0.279,0.034,0.595,0.073,0.968,0.197c1.031,0.341,1.113,0.987,1.192,1.612
		c0.023,0.187,0.048,0.381,0.097,0.583c0.183,0.762,0.559,0.861,1.032,0.912C14.924,109.651,15.872,110.115,16.081,110.219z"/>
</g>
<g>
</g>
<g>
</g>
<g>
</g>
<g>
</g>
<g>
</g>
<g>
</g>
</svg>
