<?xml version="1.0" encoding="utf-8"?>
<!-- Generator: Adobe Illustrator 16.0.0, SVG Export Plug-In . SVG Version: 6.00 Build 0)  -->
<!DOCTYPE svg PUBLIC "-//W3C//DTD SVG 1.1//EN" "http://www.w3.org/Graphics/SVG/1.1/DTD/svg11.dtd">
<svg version="1.1" id="Layer_1" xmlns="http://www.w3.org/2000/svg" xmlns:xlink="http://www.w3.org/1999/xlink" x="0px" y="0px"
	 width="113.513px" height="532.197px" viewBox="0 0 113.513 532.197" enable-background="new 0 0 113.513 532.197"
	 xml:space="preserve">
<g>
	<g>
		<path fill-rule="evenodd" clip-rule="evenodd" fill="#414143" d="M100.579,532.197c-29.306,0-58.611,0-87.916,0
			c-2.041-1.242-4.082-2.486-6.123-3.729c-0.093-0.094-0.186-0.186-0.279-0.279c-3.383-3.559-5.406-7.75-5.885-12.658
			c0-3.965,0-7.928,0-11.891c0.14-3.215,0.277-6.432,0.421-9.646c0.238-5.311,0.487-10.621,0.721-15.934
			c0.249-5.676,0.479-11.354,0.728-17.031c0.233-5.307,0.486-10.613,0.719-15.922c0.249-5.678,0.478-11.354,0.728-17.031
			c0.231-5.256,0.493-10.51,0.716-15.766c0.257-6.037,0.471-12.078,0.734-18.115c0.216-4.947,0.493-9.891,0.712-14.838
			c0.26-5.857,0.477-11.715,0.733-17.572c0.224-5.121,0.492-10.242,0.715-15.363c0.258-5.918,0.474-11.838,0.733-17.754
			c0.22-5.016,0.49-10.027,0.713-15.043c0.258-5.797,0.479-11.596,0.733-17.393c0.228-5.195,0.487-10.389,0.716-15.583
			c0.252-5.737,0.479-11.475,0.73-17.212c0.23-5.252,0.487-10.503,0.718-15.755c0.251-5.723,0.478-11.448,0.729-17.171
			c0.23-5.256,0.491-10.51,0.717-15.766c0.255-5.917,0.474-11.837,0.732-17.755c0.221-5.061,0.493-10.12,0.713-15.182
			c0.26-5.97,0.473-11.941,0.734-17.911c0.218-5.001,0.493-10,0.712-15.001c0.26-5.909,0.482-11.82,0.733-17.73
			c0.099-2.327,0.244-4.652,0.348-6.979c0.251-5.604,0.491-11.207,0.735-16.81c0.24-5.497,0.481-10.993,0.722-16.489
			c0.241-5.496,0.492-10.992,0.721-16.489c0.229-5.499,0.416-10.999,0.658-16.497c0.24-5.425,0.61-10.845,0.768-16.272
			c0.162-5.589-0.134-11.208,1.488-16.663c1.094-1.218,2.019-2.674,3.321-3.601c2.354-1.677,4.829-3.267,7.443-4.483
			c5.181-2.412,10.648-3.917,16.402-4.227c5.84-0.315,11.296,1.224,16.564,3.502c4.515,1.952,8.663,4.46,11.295,8.855
			c0.295,0.914,0.751,1.81,0.856,2.745c0.431,3.832,0.796,7.673,1.104,11.517c0.2,2.5,0.199,5.018,0.395,7.519
			c0.441,5.629,0.963,11.252,1.423,16.879c0.383,4.681,0.756,9.362,1.078,14.048c0.396,5.77,0.772,11.542,1.086,17.316
			c0.215,3.947,0.167,7.913,0.489,11.849c0.439,5.368,1.202,10.709,1.668,16.075c0.372,4.279,0.523,8.577,0.742,12.868
			c0.077,1.502-0.032,3.02,0.118,4.513c0.252,2.522,0.736,5.022,0.956,7.546c0.429,4.922,0.742,9.854,1.104,14.782
			c0.361,4.928,0.725,9.855,1.084,14.784c0.366,5.024,0.728,10.05,1.09,15.075c0.24,3.325,0.478,6.651,0.72,9.977
			c0.359,4.924,0.723,9.847,1.084,14.77c0.362,4.928,0.725,9.856,1.084,14.784c0.364,4.988,0.724,9.977,1.088,14.965
			c0.36,4.928,0.76,9.854,1.074,14.784c0.293,4.588,0.503,9.182,0.733,13.774c0.061,1.203-0.004,2.414,0.097,3.611
			c0.429,5.083,0.961,10.158,1.331,15.246c0.26,3.58,0.193,7.188,0.496,10.764c0.465,5.488,1.178,10.955,1.679,16.441
			c0.443,4.859,0.746,9.732,1.099,14.602c0.37,5.105,0.721,10.213,1.089,15.318c0.355,4.928,0.723,9.855,1.084,14.783
			c0.361,4.922,0.724,9.844,1.084,14.768c0.243,3.324,0.515,6.648,0.717,9.977c0.286,4.709,0.484,9.424,0.783,14.133
			c0.332,5.227,0.727,10.451,1.11,15.676c0.326,4.443,0.654,8.887,1.02,13.328c0.458,5.566,1.023,11.127,1.419,16.699
			c0.461,6.484,0.719,12.984,1.195,19.467c0.49,6.688,1.188,13.359,1.697,20.045c0.339,4.465,0.505,8.941,0.747,13.412
			c0.123,2.264,0.224,4.527,0.374,6.789c0.062,0.941,0.439,1.91,0.3,2.809c-0.331,2.143-0.735,4.297-1.38,6.361
			c-1.164,3.723-3.015,7.084-6.305,9.371C104.153,530.326,102.324,531.201,100.579,532.197z M75.717,454.578
			c0.165-3.547-0.644-7.699-2.218-11.701c-2.174-5.523-5.465-10.115-11.034-12.697c-3.324-1.541-6.776-1.617-10.171-0.414
			c-2.926,1.035-5.212,3.02-7.304,5.348c-3.726,4.146-5.778,9.191-6.479,14.428c-0.855,6.389-0.64,12.898,2.223,19.066
			c1.853,3.994,4.044,7.578,7.625,10.205c3.491,2.563,7.403,3.695,11.622,2.648c4.393-1.088,7.742-3.809,10.315-7.559
			C74.142,468.295,75.771,462.08,75.717,454.578z"/>
		<path fill-rule="evenodd" clip-rule="evenodd" fill="#BCBDBF" d="M22.159,24.969c-0.281-0.558-0.803-1.115-0.807-1.675
			c-0.045-7.645-0.018-15.291-0.008-22.936c4.197,0.001,8.395,0.017,12.592-0.013C34.564,0.341,35.19,0.121,35.817,0
			c11.698,0,23.396,0,35.094,0c2.412,0.119,4.825,0.238,7.238,0.357c0.009,7.708,0.037,15.416-0.016,23.124
			c-0.003,0.513-0.619,1.022-0.95,1.533c-2.632-4.396-6.78-6.903-11.295-8.855c-5.268-2.278-10.724-3.817-16.564-3.502
			c-5.754,0.31-11.221,1.815-16.402,4.227c-2.614,1.217-5.088,2.806-7.443,4.483C24.178,22.295,23.253,23.751,22.159,24.969z"/>
		<path fill-rule="evenodd" clip-rule="evenodd" fill="#F0F0F0" d="M35.817,0c-0.627,0.121-1.253,0.341-1.881,0.346
			c-4.197,0.03-8.395,0.014-12.592,0.013C21.341,0.239,21.341,0.12,21.346,0C26.17,0,30.994,0,35.817,0z"/>
		<path fill-rule="evenodd" clip-rule="evenodd" fill="#777779" d="M0.376,515.531c-0.125,0.008-0.251,0.016-0.376,0.023
			c0-3.98,0-7.959,0-11.939c0.125,0.01,0.251,0.018,0.376,0.025C0.376,507.604,0.376,511.566,0.376,515.531z"/>
		<path fill-rule="evenodd" clip-rule="evenodd" fill="#F0F0F0" d="M78.149,0.357C75.737,0.238,73.324,0.119,70.912,0
			c2.412,0,4.824,0,7.236,0C78.152,0.119,78.152,0.238,78.149,0.357z"/>
		<path fill-rule="evenodd" clip-rule="evenodd" fill="#787879" d="M6.54,528.469c-0.093-0.094-0.186-0.186-0.279-0.279
			C6.354,528.283,6.447,528.375,6.54,528.469z"/>
	</g>
</g>
</svg>
