<?xml version="1.0" encoding="utf-8"?>
<!-- Generator: Adobe Illustrator 16.0.0, SVG Export Plug-In . SVG Version: 6.00 Build 0)  -->
<!DOCTYPE svg PUBLIC "-//W3C//DTD SVG 1.1//EN" "http://www.w3.org/Graphics/SVG/1.1/DTD/svg11.dtd">
<svg version="1.1" id="Layer_1" xmlns="http://www.w3.org/2000/svg" xmlns:xlink="http://www.w3.org/1999/xlink" x="0px" y="0px"
	 width="622.629px" height="634.584px" viewBox="0 0 622.629 634.584" enable-background="new 0 0 622.629 634.584"
	 xml:space="preserve">
<g>
	<g>
		<path fill-rule="evenodd" clip-rule="evenodd" fill="#58595B" d="M59.907,235.729c1.144-3.059,2.046-6.206,3.478-9.159
			c3.491-7.199,6.959-14.422,10.919-21.43c8.185-14.484,18.147-28.039,29.638-40.705c4.641-5.115,9.71-9.938,14.668-14.83
			c2.561-2.527,5.227-4.982,7.979-7.352c12.015-10.349,25.085-19.57,39.099-27.812c11.194-6.584,22.96-12.264,35.158-17.263
			c13.261-5.435,26.997-9.889,41.21-12.939c10.83-2.324,21.872-4.05,32.923-5.403c8.768-1.074,17.686-1.273,26.549-1.673
			c4.764-0.216,9.565-0.228,14.326,0.005c7.389,0.361,14.766,0.959,22.139,1.548c12.18,0.972,24.153,3.05,35.815,6.152
			c10.711,2.848,21.366,5.978,31.731,9.654c20.26,7.184,38.929,16.898,56.169,28.606c6.572,4.463,12.847,9.274,19.064,14.113
			c17.955,13.973,32.8,30.242,45.617,47.9c10.615,14.625,19.18,30.159,25.979,46.439c5.109,12.231,9.097,24.731,11.894,37.484
			c1.774,8.084,2.741,16.31,3.874,24.493c1.455,10.52,1.786,21.109,1.333,31.678c-0.331,7.701-1.403,15.38-2.212,23.063
			c-1.123,10.649-3.596,21.098-6.595,31.443c-3.75,12.942-8.805,25.504-14.869,37.774c-5.925,11.99-12.911,23.501-21.105,34.392
			c-5.829,7.748-12.488,15.03-18.896,22.443c-7.247,8.385-15.708,15.857-24.591,22.872c-8.623,6.809-17.776,13.146-27.066,19.267
			c-12.389,8.162-25.946,14.726-39.986,20.489c-12.268,5.04-24.857,9.42-38.02,12.337c-10.083,2.235-20.245,4.255-30.463,5.945
			c-6.112,1.012-12.391,1.355-18.616,1.73c-7.25,0.436-14.524,0.746-21.79,0.806c-10.592,0.085-21.176-0.4-31.625-1.993
			c-10.853-1.655-21.832-2.996-32.428-5.517c-11.238-2.672-22.142-6.449-33.087-9.986c-4.322-1.396-8.363-3.453-12.532-5.207
			c-0.327-0.27-0.612-0.594-0.986-0.798c-14.264-7.759-27.642-16.571-39.906-26.558c-9.598-7.815-18.991-15.875-26.995-25.01
			c-6.847-7.813-13.991-15.482-20.087-23.73c-7.278-9.844-13.762-20.147-20.227-30.425c-3.17-5.039-5.57-10.451-8.234-15.727
			c-5.825-11.534-10.611-23.415-14.444-35.541c-4.149-13.122-7.675-26.397-9.489-39.96c-0.949-7.101-2.062-14.191-2.701-21.314
			c-0.499-5.563-0.514-11.171-0.503-16.758c0.014-6.873-0.021-13.761,0.518-20.61c0.55-6.99,1.546-13.97,2.757-20.9
			C56.576,250.386,58.346,243.071,59.907,235.729z"/>
		<path fill-rule="evenodd" clip-rule="evenodd" fill="#808185" d="M622.292,310.326c0.113,0.197,0.323,0.394,0.323,0.591
			c0.02,4.37,0.02,8.741,0.001,13.112c-0.001,0.197-0.211,0.393-0.324,0.59c-0.093,0.094-0.186,0.186-0.278,0.279
			c-0.018,1.809,0.052,3.621-0.066,5.422c-0.441,6.73-0.745,13.479-1.475,20.18c-0.873,8.025-1.84,16.061-3.297,23.996
			c-1.615,8.789-3.542,17.547-5.864,26.176c-2.371,8.809-5.172,17.518-8.187,26.131c-2.448,6.994-5.313,13.857-8.32,20.635
			c-3.116,7.023-6.395,13.996-10.024,20.764c-3.957,7.381-8.212,14.619-12.684,21.701c-4.119,6.523-8.579,12.842-13.115,19.088
			c-3.354,4.615-6.935,9.086-10.66,13.41c-5.271,6.115-10.608,12.189-16.216,17.994c-5.275,5.461-10.823,10.676-16.464,15.764
			c-5.268,4.75-10.641,9.416-16.282,13.705c-6.945,5.281-14.07,10.363-21.388,15.111c-7.072,4.592-14.403,8.803-21.771,12.91
			c-15.459,8.619-31.712,15.434-48.488,21.064c-12.1,4.061-24.417,7.279-36.905,9.795c-7.146,1.438-14.405,2.352-21.638,3.32
			c-4.895,0.656-9.83,1.006-14.75,1.475c-1.724,0.164-3.452,0.275-5.178,0.412c-0.094,0.094-0.188,0.186-0.28,0.279
			c-0.498,0.117-0.996,0.338-1.494,0.338c-10.762,0.021-21.524,0.021-32.287,0c-0.498,0-0.996-0.221-1.494-0.338
			c-0.093-0.094-0.187-0.186-0.281-0.279c-7.128-0.623-14.284-1.02-21.375-1.93c-6.993-0.896-13.931-2.248-20.873-3.514
			c-13.324-2.43-26.318-6.111-39.125-10.486c-9.277-3.17-18.428-6.652-27.256-10.928c-7.022-3.4-14.144-6.633-20.961-10.41
			c-7.269-4.027-14.335-8.449-21.299-12.994c-6.167-4.023-12.21-8.268-18.052-12.748c-5.624-4.314-11.049-8.914-16.326-13.65
			c-6.429-5.771-12.819-11.615-18.84-17.805c-5.537-5.691-10.588-11.857-15.805-17.855c-7.705-8.859-14.562-18.367-20.914-28.215
			c-4.542-7.041-8.811-14.27-12.91-21.578c-3.383-6.029-6.586-12.188-9.422-18.49c-3.798-8.443-7.536-16.951-10.621-25.67
			c-3.635-10.275-6.778-20.744-9.686-31.252c-1.924-6.953-3.224-14.094-4.503-21.205c-1.292-7.182-2.339-14.412-3.256-21.652
			c-0.599-4.73-0.785-9.514-1.129-14.275c-0.086-1.195-0.04-1.197-1.053-1.379c0-1.93,0-3.859,0-5.789
			c0.184,0.025,0.369,0.049,0.553,0.072c0.017-0.1,0.033-0.199,0.049-0.301c-0.201-0.043-0.401-0.088-0.602-0.133
			c0-9.648,0-19.295,0-28.943c0.211-0.242,0.422-0.485,0.633-0.729c-0.211-0.602-0.422-1.203-0.633-1.804c0-0.241,0-0.482,0-0.724
			c0.225-0.241,0.625-0.482,0.625-0.723c0-0.242-0.4-0.482-0.625-0.724c0-0.361,0-0.723,0-1.085c0.348-0.339,0.95-0.648,0.996-1.023
			c0.136-1.129-0.048-2.296,0.077-3.429c0.682-6.145,1.346-12.294,2.158-18.422c0.772-5.824,1.422-11.688,2.658-17.419
			c2.009-9.32,4.332-18.577,6.738-27.804c3.496-13.403,8.226-26.404,13.823-39.055c3.78-8.543,7.956-16.923,12.268-25.213
			c3.095-5.952,6.535-11.744,10.13-17.41c4.39-6.917,8.861-13.81,13.744-20.38c5.04-6.78,10.477-13.281,16.002-19.679
			c4.72-5.464,9.636-10.785,14.783-15.846c6.364-6.258,12.982-12.267,19.636-18.221c3.947-3.532,8.021-6.964,12.311-10.063
			c7.074-5.111,14.206-10.179,21.614-14.78c8.58-5.329,17.308-10.479,26.299-15.067c8.674-4.426,17.702-8.184,26.687-11.967
			c11.001-4.631,22.409-8.126,33.948-11.124c6.645-1.727,13.388-3.116,20.139-4.379c7.341-1.374,14.725-2.563,22.126-3.567
			c4.662-0.632,9.393-0.756,14.086-1.182c0.367-0.034,0.681-0.654,1.02-1.002c1.93,0,3.859,0,5.789,0
			c-0.024,0.185-0.048,0.369-0.072,0.553c0.1,0.017,0.2,0.033,0.3,0.049c0.045-0.201,0.089-0.401,0.134-0.602
			c9.165,0,18.331,0,27.496,0c0.243,0.211,0.486,0.421,0.729,0.632c0.542-0.031,1.084-0.061,1.626-0.091l0.055-0.072
			c0.162-0.156,0.324-0.313,0.485-0.469c1.206,0,2.412,0,3.618,0c0.239,0.346,0.454,0.974,0.721,0.997
			c3.57,0.307,7.152,0.466,10.72,0.791c3.018,0.274,6.029,0.654,9.027,1.099c4.458,0.661,8.945,1.217,13.341,2.178
			c10.065,2.2,20.127,4.447,30.109,6.99c12.673,3.229,24.809,8.076,36.893,13.009c5.009,2.045,10,4.204,14.782,6.723
			c13.415,7.065,26.673,14.446,39.029,23.267c7.545,5.387,14.867,11.104,22.078,16.934c4.878,3.943,9.438,8.286,14.047,12.55
			c3.75,3.469,7.51,6.95,10.999,10.674c4.737,5.056,9.192,10.376,13.821,15.536c8.087,9.012,15.037,18.892,21.855,28.852
			c3.721,5.435,7.107,11.12,10.33,16.868c4.251,7.583,8.485,15.2,12.189,23.056c3.896,8.263,7.397,16.734,10.626,25.282
			c3.076,8.146,5.797,16.444,8.263,24.797c1.942,6.582,3.395,13.32,4.819,20.041c1.485,7.012,2.794,14.067,3.953,21.141
			c0.721,4.397,1.168,8.852,1.479,13.3c0.605,8.648,1.029,17.31,1.528,25.965C622.106,310.141,622.199,310.233,622.292,310.326z
			 M13.386,317.197c-0.101,0.004-0.201,0.01-0.301,0.014c0.34,7.195,0.563,14.4,1.054,21.586c0.436,6.373,1.032,12.742,1.81,19.084
			c0.813,6.627,1.565,13.295,2.993,19.803c2.314,10.541,4.79,21.076,7.858,31.418c5.947,20.045,13.897,39.316,24.072,57.609
			c4.014,7.217,8.208,14.346,12.634,21.314c6.095,9.598,12.75,18.816,20.172,27.445c5.273,6.131,10.568,12.254,16.073,18.174
			c3.765,4.049,7.824,7.84,11.906,11.576c4.86,4.449,9.676,8.988,14.887,13c8.093,6.23,16.39,12.213,24.807,18
			c11.33,7.791,23.411,14.283,35.86,20.133c9.88,4.645,19.918,8.887,30.312,12.172c9.274,2.93,18.669,5.514,28.099,7.902
			c6.522,1.65,13.167,2.883,19.811,3.973c5.412,0.885,10.895,1.377,16.363,1.867c6.552,0.586,13.115,1.219,19.686,1.396
			c6.607,0.18,13.232-0.074,19.842-0.324c5.74-0.217,11.48-0.588,17.204-1.084c5.409-0.471,10.849-0.902,16.181-1.869
			c9.088-1.65,18.194-3.357,27.123-5.691c9.358-2.445,18.596-5.428,27.735-8.607c6.884-2.396,13.615-5.289,20.258-8.303
			c6.49-2.943,12.848-6.203,19.143-9.551c5.124-2.725,10.187-5.604,15.069-8.736c9.163-5.879,18.249-11.891,26.602-18.916
			c6.227-5.238,12.679-10.244,18.574-15.834c9.287-8.805,18.391-17.838,26.258-27.982c6.299-8.119,12.683-16.201,18.477-24.678
			c5.228-7.648,9.748-15.779,14.501-23.746c5.761-9.656,10.542-19.832,14.63-30.266c4.315-11.016,8.12-22.252,11.64-33.553
			c2.407-7.73,4.218-15.678,5.793-23.629c1.666-8.414,2.9-16.924,4.019-25.43c0.956-7.279,1.61-14.604,2.148-21.928
			c0.361-4.908,0.352-9.85,0.385-14.777c0.018-2.754-0.216-5.512-0.338-8.268c-0.238-5.391-0.324-10.794-0.756-16.17
			c-0.567-7.081-1.275-14.155-2.169-21.201c-0.728-5.731-1.619-11.458-2.796-17.112c-1.52-7.296-3.321-14.538-5.137-21.769
			c-2.89-11.504-6.809-22.677-11.182-33.69c-4.565-11.497-9.808-22.688-15.855-33.476c-3.891-6.941-7.935-13.811-12.221-20.514
			c-6.222-9.729-12.973-19.096-20.547-27.837c-4.981-5.749-9.898-11.559-15.061-17.141c-3.467-3.75-7.232-7.237-11.009-10.683
			c-4.911-4.481-9.828-8.977-14.995-13.153c-6.363-5.145-12.849-10.165-19.529-14.888c-12.938-9.146-26.644-17.03-40.988-23.767
			c-5.472-2.57-10.984-5.1-16.635-7.235c-8.219-3.105-16.48-6.168-24.903-8.636c-9.15-2.68-18.453-4.906-27.788-6.861
			c-7.165-1.501-14.466-2.417-21.739-3.33c-6.337-0.795-12.711-1.454-19.088-1.747c-6.403-0.295-12.834-0.205-19.246-0.028
			c-7.066,0.195-14.134,0.557-21.184,1.082c-5.232,0.389-10.473,0.935-15.644,1.803c-8.639,1.45-17.273,2.997-25.82,4.901
			c-10.387,2.313-20.537,5.494-30.549,9.139c-12.748,4.641-25.234,9.868-37.066,16.513c-8.557,4.805-17.061,9.741-25.304,15.058
			c-6.922,4.465-13.549,9.419-20.092,14.437c-4.602,3.528-8.918,7.443-13.228,11.334c-5.348,4.828-10.709,9.66-15.78,14.772
			c-4.342,4.378-8.367,9.083-12.379,13.774c-3.964,4.634-7.935,9.288-11.546,14.194c-5.101,6.932-10.124,13.946-14.721,21.215
			c-4.83,7.635-9.26,15.536-13.593,23.468c-2.7,4.942-5.056,10.09-7.282,15.269c-3.354,7.805-6.723,15.622-9.605,23.607
			c-3.936,10.906-7.278,22.02-9.707,33.376c-1.471,6.878-3.007,13.752-4.149,20.688c-1.114,6.764-1.895,13.591-2.581,20.416
			c-0.651,6.484-1.086,12.995-1.431,19.503C13.222,309.592,13.386,313.398,13.386,317.197z"/>
		<path fill-rule="evenodd" clip-rule="evenodd" fill="#E4E4E4" d="M325.251,0c0.122,0.211,0.244,0.421,0.366,0.632
			c-0.242-0.211-0.485-0.421-0.729-0.632C325.01,0,325.131,0,325.251,0z"/>
		<path fill-rule="evenodd" clip-rule="evenodd" fill="#E4E4E5" d="M0,302.459c0.211-0.123,0.422-0.245,0.633-0.367
			c-0.211,0.243-0.422,0.486-0.633,0.729C0,302.699,0,302.579,0,302.459z"/>
		<path fill-rule="evenodd" clip-rule="evenodd" fill="#E4E4E5" d="M297.394,0c-0.045,0.201-0.089,0.401-0.134,0.602
			c-0.1-0.016-0.2-0.032-0.3-0.049c0.024-0.184,0.048-0.368,0.072-0.553C297.152,0,297.273,0,297.394,0z"/>
		<path fill-rule="evenodd" clip-rule="evenodd" fill="#E4E4E5" d="M0,331.764c0.201,0.045,0.401,0.09,0.602,0.133
			c-0.016,0.102-0.032,0.201-0.049,0.301c-0.184-0.023-0.369-0.047-0.553-0.072C0,332.006,0,331.885,0,331.764z"/>
		<path fill-rule="evenodd" clip-rule="evenodd" fill="#E4E4E4" d="M327.244,0.541c-0.062-0.18-0.122-0.361-0.184-0.541
			c0.121,0,0.241,0,0.362,0c-0.041,0.156-0.083,0.313-0.124,0.469L327.244,0.541z"/>
		<path fill-rule="evenodd" clip-rule="evenodd" fill="#E4E4E4" d="M622.292,310.326c-0.093-0.093-0.186-0.186-0.279-0.279
			C622.106,310.141,622.199,310.233,622.292,310.326z"/>
		<path fill-rule="evenodd" clip-rule="evenodd" fill="#E4E4E4" d="M622.013,324.898c0.093-0.094,0.186-0.186,0.278-0.279
			C622.199,324.713,622.106,324.805,622.013,324.898z"/>
		<path fill-rule="evenodd" clip-rule="evenodd" fill="#E4E4E4" d="M293.405,633.951c0.094,0.094,0.188,0.186,0.281,0.279
			C293.592,634.137,293.499,634.045,293.405,633.951z"/>
		<path fill-rule="evenodd" clip-rule="evenodd" fill="#E4E4E4" d="M328.96,634.23c0.093-0.094,0.187-0.186,0.28-0.279
			C329.147,634.045,329.053,634.137,328.96,634.23z"/>
		<path fill-rule="evenodd" clip-rule="evenodd" fill="#414143" d="M13.386,317.197c0-3.799-0.164-7.605,0.037-11.395
			c0.345-6.508,0.779-13.019,1.431-19.503c0.686-6.824,1.467-13.651,2.581-20.416c1.142-6.937,2.679-13.81,4.149-20.688
			c2.428-11.357,5.771-22.47,9.707-33.376c2.882-7.985,6.251-15.802,9.605-23.607c2.226-5.178,4.582-10.326,7.282-15.269
			c4.333-7.933,8.763-15.833,13.593-23.468c4.598-7.269,9.62-14.284,14.721-21.215c3.611-4.907,7.582-9.56,11.546-14.194
			c4.012-4.691,8.037-9.396,12.379-13.774c5.071-5.112,10.432-9.944,15.78-14.772c4.31-3.891,8.626-7.806,13.228-11.334
			c6.543-5.017,13.169-9.971,20.092-14.437c8.243-5.317,16.747-10.253,25.304-15.058c11.832-6.645,24.318-11.872,37.066-16.513
			c10.012-3.645,20.162-6.826,30.549-9.139c8.547-1.904,17.181-3.451,25.82-4.901c5.171-0.868,10.412-1.414,15.644-1.803
			c7.049-0.525,14.118-0.887,21.184-1.082c6.412-0.177,12.842-0.268,19.246,0.028c6.377,0.293,12.751,0.952,19.088,1.747
			c7.273,0.913,14.574,1.829,21.739,3.33c9.335,1.955,18.638,4.181,27.788,6.861c8.423,2.468,16.685,5.531,24.903,8.636
			c5.65,2.135,11.163,4.665,16.635,7.235c14.345,6.736,28.05,14.62,40.988,23.767c6.681,4.724,13.166,9.744,19.529,14.888
			c5.167,4.176,10.084,8.672,14.995,13.153c3.776,3.446,7.542,6.934,11.009,10.683c5.162,5.583,10.079,11.393,15.061,17.141
			c7.574,8.741,14.325,18.108,20.547,27.837c4.286,6.703,8.33,13.572,12.221,20.514c6.048,10.789,11.29,21.979,15.855,33.476
			c4.373,11.013,8.292,22.187,11.182,33.69c1.815,7.231,3.617,14.472,5.137,21.769c1.177,5.654,2.068,11.381,2.796,17.112
			c0.894,7.046,1.602,14.121,2.169,21.201c0.432,5.376,0.518,10.78,0.756,16.17c0.122,2.756,0.355,5.514,0.338,8.268
			c-0.033,4.928-0.023,9.869-0.385,14.777c-0.538,7.324-1.192,14.648-2.148,21.928c-1.118,8.506-2.353,17.016-4.019,25.43
			c-1.575,7.951-3.386,15.898-5.793,23.629c-3.52,11.301-7.324,22.537-11.64,33.553c-4.088,10.434-8.869,20.609-14.63,30.266
			c-4.753,7.967-9.273,16.098-14.501,23.746c-5.794,8.477-12.178,16.559-18.477,24.678c-7.867,10.145-16.971,19.178-26.258,27.982
			c-5.896,5.59-12.348,10.596-18.574,15.834c-8.353,7.025-17.438,13.037-26.602,18.916c-4.883,3.133-9.945,6.012-15.069,8.736
			c-6.295,3.348-12.652,6.607-19.143,9.551c-6.643,3.014-13.374,5.906-20.258,8.303c-9.14,3.18-18.377,6.162-27.735,8.607
			c-8.929,2.334-18.035,4.041-27.123,5.691c-5.332,0.967-10.771,1.398-16.181,1.869c-5.724,0.496-11.464,0.867-17.204,1.084
			c-6.61,0.25-13.235,0.504-19.842,0.324c-6.57-0.178-13.133-0.811-19.686-1.396c-5.468-0.49-10.952-0.982-16.363-1.867
			c-6.644-1.09-13.288-2.322-19.811-3.973c-9.43-2.389-18.825-4.973-28.099-7.902c-10.394-3.285-20.432-7.527-30.312-12.172
			c-12.449-5.85-24.53-12.342-35.86-20.133c-8.417-5.787-16.714-11.77-24.807-18c-5.211-4.012-10.027-8.551-14.887-13
			c-4.082-3.736-8.141-7.527-11.906-11.576c-5.505-5.92-10.8-12.043-16.073-18.174c-7.422-8.629-14.078-17.848-20.172-27.445
			c-4.426-6.969-8.62-14.098-12.634-21.314c-10.175-18.293-18.125-37.564-24.072-57.609c-3.069-10.342-5.544-20.877-7.858-31.418
			c-1.428-6.508-2.18-13.176-2.993-19.803c-0.778-6.342-1.374-12.711-1.81-19.084c-0.491-7.186-0.714-14.391-1.054-21.586
			C13.186,317.207,13.286,317.201,13.386,317.197z M116.137,244.563c-0.232,0.135-0.603,0.217-0.676,0.412
			c-1.912,5.054-4.134,10.024-5.598,15.208c-2.157,7.635-4.338,15.262-5.831,23.102c-1.618,8.497-2.496,17.052-3.393,25.615
			c-0.461,4.404-0.498,8.881-0.375,13.314c0.172,6.213,0.495,12.434,1.079,18.621c0.648,6.861,1.211,13.785,2.629,20.51
			c1.993,9.445,4.437,18.824,7.249,28.063c2.924,9.607,6.744,18.928,11.475,27.816c3.412,6.414,6.841,12.834,10.623,19.029
			c4.684,7.674,9.92,14.988,15.882,21.746c3.836,4.35,7.554,8.82,11.609,12.957c3.597,3.67,7.488,7.072,11.43,10.377
			c4.422,3.707,8.95,7.305,13.603,10.717c9.591,7.029,19.94,12.785,30.771,17.672c1.557,0.703,3.195,1.225,4.796,1.83
			c3.235,1.564,6.371,3.398,9.724,4.645c8.493,3.154,16.953,6.523,25.673,8.906c8.222,2.248,16.741,3.443,25.161,4.92
			c8.108,1.42,16.32,1.854,24.539,1.777c5.638-0.053,11.281-0.33,16.907-0.719c4.83-0.334,9.702-0.641,14.444-1.543
			c7.929-1.508,15.813-3.309,23.637-5.303c10.213-2.602,19.981-6.508,29.5-11.002c10.894-5.141,21.413-10.994,31.025-18.273
			c7.208-5.459,14.311-11.111,21.001-17.184c6.893-6.256,13.457-12.92,19.08-20.398c4.972-6.611,10.139-13.105,14.661-20.016
			c6.358-9.713,11.778-19.979,16.376-30.672c4.705-10.943,8.628-22.146,11.537-33.689c2.327-9.227,4.246-18.545,5.117-28.043
			c0.628-6.852,1.46-13.699,1.717-20.568c0.352-9.426,0.095-18.869-1.034-28.252c-0.879-7.298-1.629-14.634-3.006-21.844
			c-2.17-11.373-5.265-22.521-9.229-33.43c-5.275-14.52-11.921-28.374-20.157-41.417c-9.944-15.748-21.463-30.258-35.395-42.72
			c-4.824-4.316-9.692-8.606-14.792-12.587c-13.377-10.441-27.862-19.105-43.582-25.512c-8.042-3.278-16.31-6.07-24.62-8.61
			c-9.049-2.766-18.339-4.62-27.789-5.487c-5.721-0.524-11.444-1.058-17.178-1.38c-3.694-0.208-7.419-0.197-11.116-0.005
			c-6.877,0.357-13.797,0.535-20.6,1.493c-8.575,1.206-17.142,2.746-25.545,4.818c-11.028,2.72-21.686,6.693-31.976,11.54
			c-9.465,4.458-18.594,9.523-27.28,15.396c-10.873,7.351-21.014,15.575-30.337,24.804c-2.135,2.114-4.204,4.303-6.191,6.557
			c-3.847,4.363-7.78,8.665-11.381,13.226c-8.916,11.296-16.646,23.385-22.996,36.303c-3.072,6.25-5.764,12.692-8.472,19.112
			C117.725,239.028,117.024,241.834,116.137,244.563z"/>
		<path fill-rule="evenodd" clip-rule="evenodd" fill="#A7A8AC" d="M116.137,244.563c-1.211,6.548-2.584,13.071-3.585,19.651
			c-0.939,6.18-1.712,12.405-2.139,18.639c-0.418,6.108-0.391,12.252-0.402,18.381c-0.009,4.983,0.003,9.984,0.39,14.946
			c0.496,6.353,1.359,12.677,2.096,19.009c1.407,12.096,4.143,23.936,7.363,35.639c2.974,10.814,6.688,21.41,11.208,31.697
			c2.067,4.705,3.929,9.531,6.389,14.025c5.016,9.166,10.047,18.355,15.694,27.135c4.73,7.355,10.273,14.195,15.585,21.164
			c6.21,8.146,13.499,15.334,20.945,22.305c9.516,8.906,19.896,16.766,30.964,23.686c0.29,0.182,0.511,0.471,0.765,0.711
			c-1.601-0.605-3.239-1.127-4.796-1.83c-10.832-4.887-21.181-10.643-30.771-17.672c-4.653-3.412-9.181-7.01-13.603-10.717
			c-3.942-3.305-7.833-6.707-11.43-10.377c-4.055-4.137-7.773-8.607-11.609-12.957c-5.961-6.758-11.198-14.072-15.882-21.746
			c-3.782-6.195-7.211-12.615-10.623-19.029c-4.73-8.889-8.55-18.209-11.475-27.816c-2.812-9.238-5.256-18.617-7.249-28.063
			c-1.418-6.725-1.981-13.648-2.629-20.51c-0.584-6.188-0.907-12.408-1.079-18.621c-0.123-4.434-0.086-8.91,0.375-13.314
			c0.897-8.563,1.775-17.118,3.393-25.615c1.493-7.84,3.674-15.466,5.831-23.102c1.464-5.184,3.687-10.153,5.598-15.208
			C115.535,244.78,115.905,244.697,116.137,244.563z"/>
	</g>
</g>
</svg>
