<?xml version="1.0" encoding="utf-8"?>
<!-- Generator: Adobe Illustrator 16.0.0, SVG Export Plug-In . SVG Version: 6.00 Build 0)  -->
<!DOCTYPE svg PUBLIC "-//W3C//DTD SVG 1.1//EN" "http://www.w3.org/Graphics/SVG/1.1/DTD/svg11.dtd">
<svg version="1.1" id="Layer_1" xmlns="http://www.w3.org/2000/svg" xmlns:xlink="http://www.w3.org/1999/xlink" x="0px" y="0px"
	 width="760.917px" height="437.503px" viewBox="0 0 760.917 437.503" enable-background="new 0 0 760.917 437.503"
	 xml:space="preserve">
<path fill="#7B5B3E" d="M42.023,437.396c0,0,402.878-0.777,441.972-0.854c39.094-0.074,33.59-38.072,33.59-38.072
	c-7.461-51.639,25.328-117.457,78.279-130.751c42.629-10.701,86.99,2.322,130.035,2.21c41.195-0.109,34.635-27.215,34.635-27.215
	l-0.041-20.633l-0.016-8.688l-0.041-20.633c0,0,6.457-27.131-34.738-27.081c-43.045,0.054-87.355,13.246-130.025,2.709
	c-53.004-13.088-86.045-78.778-78.783-130.446c0,0,5.357-38.018-33.736-37.943C444.06,0.076,41.181,0.854,41.181,0.854
	S-0.092-3.411,0,44.37c0.078,40.37,0.271,140.426,0.329,170.49c0.01,5.517,0.017,8.688,0.017,8.688
	c0.058,30.064,0.251,130.118,0.329,170.491C0.767,441.82,42.023,437.396,42.023,437.396z M699.314,217.855
	c-0.02-9.795,7.906-17.751,17.701-17.77c9.797-0.02,17.752,7.906,17.771,17.701c0.018,9.796-7.906,17.752-17.703,17.771
	C707.289,235.577,699.332,227.652,699.314,217.855z"/>
</svg>
