<?xml version="1.0" encoding="utf-8"?>
<!-- Generator: Adobe Illustrator 16.0.0, SVG Export Plug-In . SVG Version: 6.00 Build 0)  -->
<!DOCTYPE svg PUBLIC "-//W3C//DTD SVG 1.1//EN" "http://www.w3.org/Graphics/SVG/1.1/DTD/svg11.dtd">
<svg version="1.1" id="Layer_1" xmlns="http://www.w3.org/2000/svg" xmlns:xlink="http://www.w3.org/1999/xlink" x="0px" y="0px"
	 width="61.032px" height="63.275px" viewBox="0 0 61.032 63.275" enable-background="new 0 0 61.032 63.275" xml:space="preserve">
<g>
	<g>
		<path fill="#DD8D7B" d="M32.667,12.177c0.035-0.813-1.111-2.305-2.27-2.355c-1.31-0.059-2.415,0.901-2.471,2.145
			c-0.056,1.242,0.96,2.298,2.269,2.355C31.504,14.379,32.61,13.419,32.667,12.177z"/>
		<g>
			<path fill="#A42B30" d="M32.902,17.645l-1.387-1.27L31,13.219l-5.727,6.769c0.338,0.095,1.04-0.337,1.344-0.229l3.734,0.067
				c1.128-0.145,1.835-0.563,2.392-1.278l0.207-0.267C32.816,18.098,32.821,17.854,32.902,17.645z"/>
			<path fill="#A42B30" d="M33.09,15.45l0.203-4.821c-0.112-1.048-0.92-1.782-1.763-1.714l-5.462,1.292l5.574,0.205L33.09,15.45z"/>
			<path fill="#DD8D7B" d="M24.945,11.055c-0.021,0.015-0.043,0.029-0.068,0.041c-0.485,0.199-1.035,0.263-1.533,0.064
				c-0.053-0.021-0.1-0.053-0.144-0.089l-0.295,0.379c-0.582,0.747-0.851,1.69-0.748,2.631l0.104,0.969l1.18,3.992l2.694-6.876
				L24.945,11.055z"/>
			<path fill="#BF2B32" d="M24.844,20.519l5.407-0.68c0.896-0.097,1.542-0.9,1.445-1.797L31,13.219
				c-0.099-0.912-0.919-1.572-1.833-1.475L24.35,12.36c-1.299,0.141-2.237,1.308-2.097,2.605l0.793,4.106
				C23.144,19.969,23.948,20.615,24.844,20.519z"/>
			<path fill="#DD8D7B" d="M23.646,12.437l5.557-0.696c1.034-0.112,1.915-0.48,2.555-1.301l0.312-0.4
				c0.38-0.49-0.013-1.197-0.63-1.13l-5.494,0.539c-1.034,0.111-1.979,0.638-2.618,1.459l-0.312,0.399
				C22.636,11.797,23.029,12.504,23.646,12.437z"/>
			<path fill="#A42B30" d="M32.917,18.324l0.304-0.389c0.601-0.772,0.878-1.748,0.772-2.723l-0.719-4.76
				c-0.066-0.627-0.863-0.854-1.251-0.354l-0.31,0.396c-0.613,0.788-0.833,1.625-0.726,2.617l0.7,4.863
				C31.756,18.59,32.536,18.813,32.917,18.324z"/>
		</g>
	</g>
	<g>
		<path fill="#DD8D7B" d="M23.174,33.799c-0.146-0.802-1.596-1.999-2.736-1.793c-1.289,0.234-2.153,1.416-1.932,2.641
			c0.222,1.225,1.447,2.026,2.735,1.793C22.53,36.205,23.396,35.023,23.174,33.799z"/>
		<g>
			<path fill="#A42B30" d="M24.619,39.078l-1.633-0.929l-1.205-2.964l-4.079,7.872c0.352,0.017,0.939-0.562,1.26-0.521l3.656-0.764
				c1.067-0.394,1.663-0.959,2.046-1.779l0.144-0.305C24.637,39.539,24.587,39.301,24.619,39.078z"/>
			<path fill="#A42B30" d="M24.315,36.896l-0.874-4.746c-0.344-0.996-1.294-1.533-2.099-1.279l-5.039,2.476l5.481-1.04
				L24.315,36.896z"/>
			<path fill="#DD8D7B" d="M15.397,34.422c-0.019,0.021-0.036,0.039-0.059,0.056c-0.428,0.304-0.95,0.485-1.48,0.403
				c-0.056-0.008-0.108-0.027-0.159-0.055l-0.203,0.437c-0.401,0.856-0.453,1.837-0.145,2.73l0.317,0.922l2.038,3.629l1.098-7.302
				L15.397,34.422z"/>
			<path fill="#BF2B32" d="M17.401,43.672l5.121-1.863c0.852-0.293,1.304-1.223,1.01-2.073l-1.751-4.549
				c-0.299-0.868-1.246-1.33-2.115-1.03l-4.56,1.672c-1.234,0.426-1.891,1.772-1.465,3.008l1.687,3.826
				C15.621,43.513,16.55,43.965,17.401,43.672z"/>
			<path fill="#DD8D7B" d="M14.438,36.059l5.263-1.915c0.983-0.339,1.761-0.896,2.202-1.837l0.215-0.459
				c0.263-0.563-0.279-1.163-0.865-0.961l-5.236,1.746c-0.983,0.34-1.787,1.063-2.228,2.005l-0.215,0.459
				C13.311,35.659,13.852,36.26,14.438,36.059z"/>
			<path fill="#A42B30" d="M24.784,39.737l0.209-0.446c0.415-0.887,0.469-1.899,0.149-2.825l-1.758-4.48
				c-0.206-0.597-1.032-0.641-1.3-0.068l-0.213,0.455c-0.423,0.904-0.451,1.771-0.126,2.714l1.765,4.585
				C23.712,40.255,24.522,40.297,24.784,39.737z"/>
		</g>
	</g>
	<g>
		<path fill="#DD8D7B" d="M45.963,47.474c0.685-0.444,1.229-2.243,0.6-3.217c-0.714-1.099-2.139-1.44-3.182-0.764
			s-1.312,2.116-0.598,3.216C43.497,47.809,44.92,48.15,45.963,47.474z"/>
		<g>
			<path fill="#A42B30" d="M41.651,50.844l0.227-1.864l2.271-2.255l-8.836-0.727c0.12,0.33,0.879,0.65,0.967,0.961l2.115,3.078
				c0.772,0.833,1.526,1.164,2.431,1.202l0.338,0.014C41.232,51.038,41.434,50.9,41.651,50.844z"/>
			<path fill="#A42B30" d="M43.547,49.722l4.041-2.639c0.787-0.701,0.914-1.785,0.369-2.43l-4.227-3.693l3.074,4.655L43.547,49.722z
				"/>
			<path fill="#DD8D7B" d="M42.389,40.539c-0.023-0.009-0.051-0.018-0.073-0.032c-0.444-0.277-0.813-0.688-0.944-1.21
				c-0.014-0.055-0.016-0.11-0.011-0.167l-0.479-0.021c-0.945-0.039-1.869,0.291-2.575,0.921l-0.728,0.647l-2.563,3.28l7.159-1.805
				L42.389,40.539z"/>
			<path fill="#BF2B32" d="M34.629,45.957l3.695,4.006c0.6,0.672,1.629,0.731,2.303,0.132l3.521-3.37
				c0.687-0.611,0.746-1.663,0.136-2.35l-3.303-3.562c-0.87-0.976-2.365-1.062-3.34-0.191l-2.88,3.032
				C34.088,44.254,34.029,45.285,34.629,45.957z"/>
			<path fill="#DD8D7B" d="M40.508,40.285l3.798,4.117c0.692,0.775,1.505,1.279,2.544,1.322l0.507,0.021
				c0.619,0.026,0.966-0.705,0.554-1.168l-3.633-4.157c-0.691-0.775-1.67-1.237-2.709-1.281l-0.506-0.021
				C40.442,39.091,40.097,39.822,40.508,40.285z"/>
			<path fill="#A42B30" d="M41.107,51.251l0.492,0.021c0.979,0.04,1.935-0.303,2.664-0.953l3.456-3.352
				c0.471-0.42,0.191-1.198-0.438-1.226l-0.503-0.021c-0.997-0.042-1.806,0.267-2.551,0.932l-3.55,3.396
				C40.215,50.461,40.489,51.225,41.107,51.251z"/>
		</g>
	</g>
	<g>
		<path fill="#DD8D7B" d="M59.872,44.085c0.416-1.069-0.162-2.294-1.289-2.731c-1.127-0.438-2.293,0.073-2.709,1.145
			s0.16,2.295,1.289,2.733C58.29,45.669,59.454,45.156,59.872,44.085z"/>
		<g>
			<path fill="#A42B30" d="M58.345,49.009l-0.769-1.55l0.615-2.954l-8.369,3.666c0.274,0.188,3.375,0.827,3.613,1.018l2.061,0.999
				c1.051,0.211,1.723,0.05,2.434-0.42l0.266-0.176C58.131,49.388,58.209,49.172,58.345,49.009z"/>
			<path fill="#A42B30" d="M59.174,47.107l1.807-4.312c0.211-0.949-0.277-1.832-1.035-2.021l-6.357-0.992l6.014,2.335L59.174,47.107
				z"/>
			<path fill="#DD8D7B" d="M52.441,40.193c-0.022,0.007-0.047,0.014-0.071,0.016c-0.484,0.032-0.983-0.076-1.361-0.396
				c-0.041-0.034-0.071-0.075-0.1-0.12l-0.371,0.245c-0.729,0.479-1.242,1.228-1.433,2.081l-0.194,0.878l-0.438,3.88l4.68-5.257
				L52.441,40.193z"/>
			<path fill="#BF2B32" d="M49.279,48.517l6.124,1.65c0.828,0.185,1.648-0.339,1.832-1.167l0.957-4.496
				c0.184-0.829-0.34-1.648-1.168-1.833l-5.49-1.512c-1.179-0.261-2.345,0.482-2.605,1.66l-0.815,3.863
				C47.929,47.513,48.452,48.333,49.279,48.517z"/>
			<path fill="#BF2B32" d="M57.265,48.795l-0.005,0.021c-0.028,0.131-0.158,0.214-0.289,0.185l-8.65-2.212
				c-0.104-0.022-0.173-0.106-0.186-0.206l-0.022,0.104c-0.184,0.828,0.339,1.648,1.167,1.833l6.124,1.65
				c0.828,0.185,1.647-0.339,1.832-1.167L57.28,48.8C57.274,48.799,57.27,48.796,57.265,48.795z"/>
			<path fill="#DD8D7B" d="M50.896,41.019l6.161,1.66c0.938,0.208,1.834,0.026,2.636-0.503l0.392-0.258
				c0.479-0.314,0.342-1.051-0.217-1.175l-6.162-1.659c-1.355-0.344-1.92-0.026-2.722,0.502l-0.305,0.258
				C50.202,40.16,50.336,40.895,50.896,41.019z"/>
			<path fill="#A42B30" d="M58.152,49.62l0.388-0.256c0.771-0.508,1.313-1.295,1.512-2.195l0.965-4.529
				c0.126-0.568-0.504-1.002-0.99-0.683l-0.388,0.256c-0.771,0.509-1.226,1.295-1.425,2.195l-0.963,4.53
				C57.124,49.507,57.667,49.94,58.152,49.62z"/>
			<path fill="#A42B30" d="M59.059,47.955l-1.537,1.071c-0.104,0.068-0.23,0.017-0.271-0.082c-0.121,0.564,0.418,0.995,0.902,0.676
				l0.389-0.256c0.771-0.508,1.313-1.295,1.512-2.195l0.09-0.404C59.887,47.241,59.518,47.652,59.059,47.955z"/>
		</g>
	</g>
	<g>
		<path fill="#DD8D7B" d="M32.418,28.902c0.65-1.227,0.779-2.855-0.51-3.54c-1.292-0.686-2.972-0.398-3.621,0.827
			c-0.65,1.226-0.131,2.772,1.16,3.458C30.738,30.332,31.77,30.128,32.418,28.902z"/>
		<g>
			<path fill="#A42B30" d="M30.112,34.191l-0.248-2.213l0.921-3.058l-7.334,4.14c0.288,0.262,1.18,0.157,1.427,0.419l2.227,1.481
				c1.176,0.398,2.066,0.311,2.947-0.154l0.328-0.174C30.335,34.381,29.935,34.367,30.112,34.191z"/>
			<path fill="#A42B30" d="M31.325,32.025l2.606-4.512c0.386-1.11-0.077-2.236-0.957-2.568l-4.787-0.778l4.728,2.105L31.325,32.025z
				"/>
			<path fill="#DD8D7B" d="M26.65,24.484c-0.029,0.004-0.058,0.01-0.089,0.008c-0.585-0.029-0.97-0.251-1.377-0.688
				c-0.044-0.047-0.03-0.163-0.056-0.222l-0.182,0.092c-0.943,0.475-1.664,1.298-2.011,2.294l-0.357,1.025l-0.485,4.207l5.766-5.262
				L26.65,24.484z"/>
			<path fill="#BF2B32" d="M22.779,33.399l4.22,1.526c0.925,0.335,1.938-0.178,2.262-1.146l1.524-4.858
				c0.336-0.967-0.175-2.023-1.142-2.36l-3.675-1.279c-1.376-0.479-2.27,0.383-2.749,1.759l-1.053,4.063
				C21.843,32.072,21.854,33.064,22.779,33.399z"/>
			<path fill="#BF2B32" d="M22.875,32.587l1.697-6.568c0.155-0.445,0.404-0.837,0.834-0.933c-1.243-0.206-2.368,0.589-2.796,1.819
				l-0.919,4.135c-0.195,1.001,0.163,2.024,1.088,2.359l0.029,0.011C22.672,33.227,22.796,32.823,22.875,32.587z"/>
			<path fill="#DD8D7B" d="M25.406,25.086l4.275,1.488c1.095,0.381,2.299,0.302,3.335-0.22l-0.037-0.021
				c0.618-0.312,0.559-1.212-0.096-1.438l-4.809-1.579c-1.096-0.381-1.641,0.075-2.677,0.597l-0.159-0.007
				C24.622,24.217,24.753,24.858,25.406,25.086z"/>
			<path fill="#DD8D7B" d="M28.514,23.491c0.004-0.006,0.008-0.012,0.013-0.018l-0.451-0.157c-1.096-0.381-1.911-0.254-2.946,0.267
				l0,0c-0.618,0.313-0.559,1.212,0.094,1.438l0.184,0.063l2.579-1.541C28.149,23.462,28.337,23.446,28.514,23.491z"/>
			<path fill="#A42B30" d="M30.327,34.662l-0.039-0.019c0.953-0.502,2.028-1.533,2.38-2.586l1.328-4.729
				c0.229-0.664-0.463-1.271-1.093-0.956l0,0c-0.993,0.5-1.714,1.386-2.08,2.438l-1.539,4.896
				C29.063,34.372,29.726,34.979,30.327,34.662z"/>
		</g>
	</g>
	<g>
		<path fill="#DD8D7B" d="M56.967,29.982c0.056-1.242,1.182-2.747-0.127-2.807c2.367,0.106-4.418-3.021-4.631,1.724
			c-0.057,1.243,0.959,2.298,2.269,2.355C58.049,31.416,56.995,29.352,56.967,29.982z"/>
		<g>
			<path fill="#A42B30" d="M57.379,34.962l-1.414-1.294l-0.682-3.514l-4.338,6.955c0.346,0.097,1.061-0.344,1.371-0.232l2.46,0.311
				c1.149-0.147,1.769-0.461,2.55-1.29l1.215-1.289C58.405,34.42,57.295,35.176,57.379,34.962z"/>
			<path fill="#DD8D7B" d="M58.45,32.059l0.088-4.447c-0.113-1.048-0.922-1.782-1.763-1.713l-3.619,0.622l3.731,0.875L58.45,32.059z
				"/>
			<path fill="#DD8D7B" d="M51.456,27.084c-0.021,0.017-0.043,0.03-0.067,0.041c-0.485,0.201-1.915,0.928-2.413,0.73
				c-0.053-0.021,0.007-0.038-0.036-0.075l0,0c-1.3,1.086-1.252,2.056-1.149,2.996l0.104,0.969l1.186,4.401l2.688-7.285
				L51.456,27.084z"/>
			<path fill="#BF2B32" d="M50.508,37.652l4.166-0.451c0.914-0.1,1.574-0.92,1.476-1.833l-0.866-5.214
				c-0.1-0.914-0.92-1.574-1.832-1.475l-3.471,0.375c-1.299,0.141-2.236,1.308-2.098,2.605l0.791,4.516
				C48.773,37.091,49.595,37.751,50.508,37.652z"/>
			<path fill="#BF2B32" d="M56.149,35.368l-0.865-5.214c-0.101-0.914-0.921-1.574-1.834-1.475l0.047,0.066l1.217,8.445
				C55.605,37.074,56.247,36.268,56.149,35.368z"/>
			<path fill="#DD8D7B" d="M49.277,29.131l4.208-0.455c1.034-0.111,1.904-0.396,2.543-1.216l0.51-0.669
				c0.381-0.489,0.764-0.965,0.146-0.897l-4.209,0.457c-1.033,0.11-2.063,0.28-2.489,0.588l-1.27,1.033
				C48.336,28.46,48.661,29.198,49.277,29.131z"/>
			<g>
				<path fill="#DD8D7B" d="M56.684,25.893l-0.51,0.056l-2.161,2.311c-0.156,0.201-0.333,0.331-0.524,0.417
					c1.033-0.11,2.875-0.434,3.514-1.253l0.313-0.399C57.694,26.533,57.301,25.826,56.684,25.893z"/>
			</g>
			<path fill="#A42B30" d="M57.394,35.654l1.078-0.971c0.624-0.57,1.024-1.003,0.918-1.995l-0.871-5.251
				c-0.067-0.627-0.863-0.854-1.251-0.356l-0.311,0.397c-0.612,0.787-1.793,1.577-1.687,2.568l0.87,5.251
				C56.209,35.926,57.006,36.152,57.394,35.654z"/>
		</g>
	</g>
	<g>
		
			<ellipse transform="matrix(0.3164 -0.9486 0.9486 0.3164 26.5926 47.2827)" fill="#DD8D7B" cx="46.104" cy="5.19" rx="2.253" ry="2.372"/>
		<g>
			<path fill="#A42B30" d="M46.786,11.639l-1.007-1.633l0.688-3.519l-8.105,4.789c0.307,0.188,2.764,0.627,3.03,0.819l2.28,0.971
				c1.147,0.172,1.959-0.042,2.703-0.588l0.277-0.203C46.575,12.06,46.646,11.821,46.786,11.639z"/>
			<path fill="#A42B30" d="M47.583,9.538l1.904-5.05c0.178-1.039-0.398-1.966-1.226-2.13l-5.997-0.646l5.695,2.118L47.583,9.538z"/>
			<path fill="#DD8D7B" d="M40.952,2.219c-0.025,0.01-0.05,0.018-0.076,0.021c-0.521,0.061-1.067-0.031-1.494-0.357
				c-0.045-0.032-0.08-0.075-0.112-0.124l-0.388,0.284c-0.764,0.56-1.279,1.395-1.438,2.326l-0.165,0.96l-0.449,4.511l6.61-5.558
				L40.952,2.219z"/>
			<path fill="#BF2B32" d="M37.792,11.68l5.779,1.372c0.905,0.154,1.766-0.453,1.92-1.358l0.979-5.205
				c0.154-0.906-0.454-1.766-1.359-1.92l-5.087-1.256c-1.288-0.221-2.511,0.646-2.729,1.934l-0.86,4.513
				C36.278,10.665,36.887,11.524,37.792,11.68z"/>
			<path fill="#BF2B32" d="M46.438,6.417l0.036,0.001c0.112-0.879,0.006-1.658-1.364-1.85l-5.087-1.256
				c-1.565-0.305-2.245-0.295-2.651,1.621c0.183-0.318,0.547-0.509,0.932-0.443l7.974,1.748C46.366,6.254,46.429,6.329,46.438,6.417
				z"/>
			<path fill="#DD8D7B" d="M39.325,3.193l5.819,1.381c1.024,0.175,2.078-0.073,2.917-0.688l0.41-0.3
				c0.5-0.366,0.314-1.152-0.297-1.259l-5.821-1.379c-1.024-0.176-2.077,0.072-2.917,0.688l-0.408,0.3
				C38.527,2.302,38.713,3.09,39.325,3.193z"/>
			<path fill="#A42B30" d="M46.609,12.309l0.406-0.297c0.805-0.591,1.351-1.471,1.519-2.454l0.983-5.241
				c0.104-0.623-0.599-1.059-1.106-0.687l-0.406,0.297c-0.805,0.591-1.35,1.472-1.518,2.455l-0.984,5.242
				C45.396,12.246,46.101,12.682,46.609,12.309z"/>
			<path fill="#A42B30" d="M46.506,6.42l0.018-0.092l3-2.197c-0.045-0.518-0.296-1.043-1.113-0.5l-0.404,0.297
				c-1.291,0.924-1.351,1.472-1.519,2.455L46.48,6.419L46.506,6.42z"/>
		</g>
	</g>
	<g>
		
			<ellipse transform="matrix(0.577 -0.8168 0.8168 0.577 -30.1284 53.8754)" fill="#DD8D7B" cx="36.945" cy="56.023" rx="2.252" ry="2.373"/>
		<g>
			<path fill="#A42B30" d="M35.733,62.389l-0.492-1.854l1.678-3.169l-9.145,2.241c0.238,0.268,2.463,1.398,2.664,1.66l1.902,1.589
				c1.05,0.497,1.888,0.524,2.758,0.219l0.324-0.114C35.409,62.73,35.547,62.524,35.733,62.389z"/>
			<path fill="#A42B30" d="M37.104,60.608l3.283-4.283c0.471-0.943,0.188-1.997-0.559-2.394l-5.555-2.354l4.84,3.674L37.104,60.608z
				"/>
			<path fill="#DD8D7B" d="M32.872,51.687c-0.026,0-0.054,0.002-0.08-0.003c-0.517-0.094-1.014-0.338-1.326-0.773
				c-0.032-0.046-0.055-0.098-0.071-0.151l-0.454,0.16c-0.893,0.314-1.628,0.964-2.05,1.812l-0.435,0.872l-1.734,4.188l7.936-3.409
				L32.872,51.687z"/>
			<path fill="#BF2B32" d="M27.112,59.829l5.137,2.984c0.821,0.41,1.819,0.076,2.229-0.746l2.44-4.7
				c0.41-0.823,0.074-1.821-0.748-2.231l-4.506-2.672c-1.169-0.583-2.59-0.106-3.172,1.063l-2.128,4.071
				C25.956,58.42,26.29,59.419,27.112,59.829z"/>
			<path fill="#BF2B32" d="M36.909,57.289l0.034,0.013c0.362-0.81,0.485-1.586-0.771-2.166l-4.508-2.672
				c-1.411-0.744-2.063-0.931-3.006,0.786c0.267-0.254,0.672-0.329,1.02-0.155l7.129,3.979
				C36.889,57.113,36.926,57.203,36.909,57.289z"/>
			<path fill="#DD8D7B" d="M31.031,52.148l5.173,3.004c0.933,0.464,2.012,0.53,2.992,0.185l0.479-0.169
				c0.586-0.206,0.636-1.014,0.08-1.29l-5.174-3.004c-0.932-0.464-2.011-0.53-2.99-0.185l-0.479,0.169
				C30.526,51.064,30.477,51.872,31.031,52.148z"/>
			<path fill="#A42B30" d="M35.372,62.98l0.475-0.168c0.941-0.331,1.717-1.018,2.162-1.91l2.457-4.734
				c0.281-0.563-0.268-1.185-0.861-0.975l-0.475,0.167c-0.941,0.332-1.717,1.018-2.162,1.911l-2.457,4.732
				C34.229,62.569,34.776,63.189,35.372,62.98z"/>
			<path fill="#A42B30" d="M36.976,57.313l0.042-0.084l3.507-1.235c0.106-0.508,0.019-1.084-0.921-0.8l-0.475,0.167
				c-1.502,0.51-1.717,1.018-2.162,1.911l-0.018,0.032L36.976,57.313z"/>
		</g>
	</g>
	<g>
		<path fill="#DD8D7B" d="M44.563,30.718c0.502-1.13,0-2.569-1.135-3.204c-1.145-0.642-3.157-0.462-3.633,0.702
			c-0.469,1.146,0.758,2.811,1.875,3.417C42.781,32.234,44.069,31.83,44.563,30.718z"/>
		<g>
			<path fill="#A42B30" d="M42.34,36.596l-0.762-1.714l1.17-3.916l-7.274,4.643c0.269,0.224,1.706,0.385,1.938,0.606l2.096,1.292
				c0.808,0.28,1.664,0.215,2.385-0.184l0.27-0.148C42.108,36.96,42.197,36.747,42.34,36.596z"/>
			<path fill="#A42B30" d="M43.276,34.706l2.514-5.275c0.361-1.332-0.25-2.184-1.22-2.541l-4.544-0.822l4.398,2.438L43.276,34.706z"
				/>
			<path fill="#DD8D7B" d="M38.725,26.387c-0.025,0.005-0.051,0.011-0.076,0.009c-0.505-0.022-1.021-0.209-1.408-0.626
				c-0.041-0.044-0.074-0.098-0.103-0.151l-0.394,0.237c-0.769,0.467-1.311,1.259-1.513,2.202l-1.453,5.793l5.636-5.865
				L38.725,26.387z"/>
			<path fill="#BF2B32" d="M34.933,35.904l4.384,1.537c0.803,0.277,1.627-0.161,1.848-0.989l1.586-5.485
				c0.233-0.886-0.252-1.856-1.092-2.161l-3.904-1.424c-1.215-0.44-2.433,0.263-2.707,1.554l-1.268,4.916
				C33.597,34.704,34.116,35.62,34.933,35.904z"/>
			<path fill="#DD8D7B" d="M37.096,27.144l4.595,1.673c0.95,0.345,1.968,0.261,2.826-0.235l0.421-0.243
				c0.518-0.299,0.436-1.152-0.137-1.363l-4.622-1.707c-0.978-0.36-2.015-0.271-2.87,0.248l-0.415,0.251
				C36.389,26.072,36.519,26.934,37.096,27.144z"/>
			<path fill="#A42B30" d="M42.118,37.199l0.395-0.218c0.787-0.436,1.373-1.188,1.634-2.11l1.692-5.613
				c0.176-0.622-0.438-1.188-0.963-0.884l-0.418,0.241c-0.824,0.476-1.427,1.285-1.682,2.249l-1.597,5.524
				C41.028,36.959,41.624,37.472,42.118,37.199z"/>
		</g>
	</g>
	<g>
		<path fill="#DD8D7B" d="M26.859,5.669c0.501-1.13,0-2.568-1.136-3.205c-1.144-0.64-3.156-0.46-3.632,0.703
			c-0.469,1.146,0.758,2.811,1.876,3.417C25.077,7.186,26.365,6.781,26.859,5.669z"/>
		<g>
			<path fill="#A42B30" d="M24.636,11.547l-0.761-1.713l1.171-3.916l-7.275,4.643c0.269,0.225,1.706,0.385,1.938,0.607l2.097,1.291
				c0.806,0.28,1.664,0.214,2.383-0.184l0.27-0.148C24.405,11.911,24.494,11.699,24.636,11.547z"/>
			<path fill="#A42B30" d="M25.573,9.657l2.513-5.276c0.361-1.332-0.249-2.183-1.22-2.541l-4.544-0.821l4.4,2.438L25.573,9.657z"/>
			<path fill="#DD8D7B" d="M21.021,1.338c-0.024,0.005-0.049,0.012-0.076,0.011c-0.504-0.023-1.022-0.209-1.409-0.627
				c-0.041-0.045-0.073-0.097-0.101-0.151l-0.393,0.237c-0.77,0.467-1.311,1.26-1.513,2.202l-1.453,5.792l5.635-5.864L21.021,1.338z
				"/>
			<path fill="#BF2B32" d="M17.229,10.855l4.383,1.537c0.803,0.278,1.628-0.16,1.847-0.989l1.587-5.485
				c0.234-0.885-0.252-1.856-1.092-2.162L20.05,2.334c-1.215-0.44-2.432,0.263-2.708,1.552l-1.266,4.916
				C15.894,9.656,16.412,10.571,17.229,10.855z"/>
			<path fill="#DD8D7B" d="M19.393,2.094l4.595,1.674c0.95,0.346,1.967,0.262,2.825-0.235l0.422-0.243
				c0.517-0.299,0.434-1.151-0.137-1.363l-4.622-1.708c-0.977-0.359-2.016-0.271-2.871,0.248l-0.415,0.25
				C18.686,1.023,18.814,1.885,19.393,2.094z"/>
			<path fill="#A42B30" d="M24.413,12.151l0.395-0.219c0.787-0.436,1.374-1.188,1.634-2.109l1.692-5.614
				c0.176-0.622-0.437-1.188-0.962-0.884l-0.418,0.241c-0.823,0.477-1.426,1.285-1.682,2.25l-1.596,5.522
				C23.325,11.911,23.921,12.423,24.413,12.151z"/>
		</g>
	</g>
	<g>
		<path fill="#DD8D7B" d="M20.869,50.658c0.045-1.235-0.957-2.386-2.246-2.554c-1.3-0.168-2.368,0.728-2.377,1.983
			c-0.009,1.237,1.016,2.348,2.279,2.494C19.779,52.729,20.824,51.874,20.869,50.658z"/>
		<g>
			<path fill="#A42B30" d="M20.914,55.25l-1.343-1.306l-0.293-2.381l-4.371,5.306c0.333,0.108,0.994-0.258,1.292-0.138l2.427,0.42
				c0.852-0.041,1.624-0.421,2.144-1.059l0.194-0.237C20.836,55.675,20.839,55.444,20.914,55.25z"/>
			<path fill="#A42B30" d="M21.081,53.147l1.659-5.537c-0.159-1.371-1.043-1.935-2.077-1.905l-5.003,2.304l4.259,0.646
				L21.081,53.147z"/>
			<path fill="#DD8D7B" d="M14.571,48.791c-0.021,0.014-0.042,0.027-0.067,0.036c-0.477,0.167-1.026,0.187-1.541-0.058
				c-0.055-0.025,1.108-1.457,1.063-1.498l-1.488,1.762c-0.54,0.719-0.748,1.656-0.585,2.607l0.729,4.227l3.126-5.85L14.571,48.791z
				"/>
			<path fill="#BF2B32" d="M14.516,57.344l3.907-0.185c0.849-0.04,1.451-0.755,1.346-1.604l-0.49-3.991
				c-0.112-0.909-0.925-1.63-1.818-1.602l-3.419,0.112c-1.293,0.042-2.16,1.148-1.937,2.448l0.576,3.344
				C12.829,56.729,13.65,57.385,14.516,57.344z"/>
			<path fill="#DD8D7B" d="M13.502,49.709l4.113-0.029c1.01-0.033,1.804-0.207,2.416-0.987l1.513-1.777
				c0.368-0.47-0.026-1.231-0.634-1.215l-4.193,0.114c-1.04,0.028-1.971,0.499-2.572,1.298l-1.503,1.783
				C12.286,49.367,12.888,49.729,13.502,49.709z"/>
			<path fill="#DD8D7B" d="M18.741,48.795l-5.94,0.317c-0.104,0.003-0.264-0.079-0.15-0.229l-0.009,0.013
				c-0.355,0.473,0.086,1.224,0.7,1.203l4.153-0.137c1.011-0.032,1.924-0.489,2.536-1.271
				C20.031,48.691,19.096,48.783,18.741,48.795z"/>
			<path fill="#A42B30" d="M20.933,55.895l1.497-1.745c0.569-0.696,0.833-1.614,0.731-2.566l-0.439-4.149
				c-0.068-0.644-0.848-0.939-1.223-0.462l-1.51,1.773c-0.588,0.748-0.846,1.724-0.724,2.714l0.495,4.031
				C19.833,56.076,20.576,56.33,20.933,55.895z"/>
			<path fill="#A42B30" d="M20.675,55.771l-0.609-4.587c-0.069-0.563-0.116-1.579-0.036-2.491l-0.04,0.052
				c-0.588,0.748-0.846,1.724-0.724,2.714l0.495,4.031c0.063,0.516,0.646,0.773,1.028,0.53
				C20.733,55.969,20.69,55.894,20.675,55.771z"/>
		</g>
	</g>
	<g>
		<path fill="#DD8D7B" d="M45.272,18.294c-0.227-1.152-1.471-1.916-2.759-1.722c-1.265,0.191-2.118,1.239-1.929,2.354
			c0.191,1.13,1.383,1.933,2.683,1.778C44.592,20.549,45.5,19.462,45.272,18.294z"/>
		<g>
			<path fill="#A42B30" d="M46.825,23.892l-1.765-1.031l-1.231-3.312L39.5,27.225c0.354,0.05,0.963-0.46,1.291-0.394l3.969-0.429
				c0.926-0.217,1.691-0.79,2.115-1.587l0.156-0.297C46.844,24.355,46.79,24.112,46.825,23.892z"/>
			<path fill="#A42B30" d="M46.493,21.705l-0.908-5.107c-0.354-0.93-1.457-1.422-2.459-1.113l-4.713,2.154l5.473-0.924
				L46.493,21.705z"/>
			<path fill="#DD8D7B" d="M37.536,18.576c-0.018,0.017-0.033,0.034-0.056,0.048c-0.405,0.258-0.896,0.404-1.377,0.315
				c-0.052-0.009-0.099-0.028-0.144-0.054l-0.198,0.379c-0.39,0.743-0.468,1.611-0.216,2.429l1.623,4.933l1.68-7.267L37.536,18.576z
				"/>
			<path fill="#BF2B32" d="M39.186,27.796l5.355-1.341c0.918-0.216,1.414-1.111,1.099-1.988l-1.812-4.917
				c-0.297-0.823-1.242-1.28-2.104-1.031l-4.494,1.309c-1.153,0.333-1.794,1.507-1.442,2.643l1.383,4.157
				C37.43,27.469,38.329,27.997,39.186,27.796z"/>
			<path fill="#DD8D7B" d="M36.602,20.007l5.156-1.499c0.978-0.281,1.791-0.93,2.246-1.79l0.221-0.42
				c0.271-0.515-0.271-1.067-0.861-0.887l-5.207,1.588c-0.924,0.283-1.682,0.904-2.109,1.725l-0.209,0.398
				C35.581,19.609,36.057,20.164,36.602,20.007z"/>
			<path fill="#A42B30" d="M47.006,24.567l0.23-0.436c0.458-0.862,0.514-1.875,0.158-2.812l-1.87-4.88
				c-0.211-0.558-1.058-0.604-1.333-0.082l-0.22,0.417c-0.437,0.826-0.5,1.783-0.179,2.677l1.82,4.948
				C45.833,25.001,46.717,25.111,47.006,24.567z"/>
		</g>
	</g>
	<g>
		<path fill="#DD8D7B" d="M11.679,28.789c0.561-1.033,0.087-2.414-1.031-3.084c-1.097-0.656-2.422-0.393-2.986,0.59
			C7.092,27.288,7.5,28.666,8.6,29.373C9.721,30.096,11.112,29.835,11.679,28.789z"/>
		<g>
			<path fill="#A42B30" d="M9.314,34.094l-0.705-1.917l1.157-3.338l-8.224,3.165c0.242,0.265,1.036,0.259,1.246,0.52l3.334,2.194
				c0.853,0.423,1.809,0.468,2.642,0.122l0.31-0.129C9.033,34.465,9.146,34.242,9.314,34.094z"/>
			<path fill="#A42B30" d="M10.45,32.196L13,27.679c0.319-0.941-0.22-2.023-1.188-2.425l-5.006-1.338l4.808,2.771L10.45,32.196z"/>
			<path fill="#DD8D7B" d="M5.532,24.083c-0.023,0.002-0.048,0.004-0.073,0.001c-0.478-0.06-0.946-0.257-1.263-0.633
				c-0.033-0.039-0.058-0.085-0.077-0.132l-0.394,0.165c-0.774,0.326-1.387,0.946-1.711,1.737l-1.889,4.836l5.921-4.535
				L5.532,24.083z"/>
			<path fill="#BF2B32" d="M0.937,32.243l4.985,2.375c0.846,0.419,1.797,0.043,2.112-0.835l1.732-4.944
				c0.296-0.823-0.143-1.778-0.966-2.137l-4.3-1.851c-1.103-0.479-2.343,0.021-2.794,1.121l-1.581,4.085
				C-0.209,30.874,0.148,31.854,0.937,32.243z"/>
			<path fill="#DD8D7B" d="M3.901,24.592l4.931,2.125c0.935,0.404,1.975,0.425,2.872,0.05l0.438-0.185
				c0.535-0.224,0.469-0.997-0.101-1.231l-5.026-2.09c-0.894-0.368-1.874-0.371-2.726-0.014l-0.415,0.175
				C3.367,23.635,3.381,24.366,3.901,24.592z"/>
			<path fill="#A42B30" d="M9.024,34.731l0.455-0.188c0.901-0.374,1.589-1.119,1.91-2.066l1.664-4.955
				c0.19-0.563-0.432-1.14-0.977-0.911l-0.435,0.182c-0.861,0.36-1.521,1.058-1.841,1.952l-1.744,4.975
				C7.842,34.318,8.455,34.968,9.024,34.731z"/>
		</g>
	</g>
	<g>
		<path fill="#BF2B32" d="M55.636,17.407c0.483-1.113-0.104-2.42-1.275-2.926c-1.144-0.493-3.164-0.983-3.661,0.063
			c-0.507,1.065,1.256,3.013,2.413,3.569C54.299,18.688,55.145,18.54,55.636,17.407z"/>
		<g>
			<path fill="#A42B30" d="M53.781,22.683l-0.313-2.177l0.787-3.092l-7.695,3.912c0.271,0.221,0.85-0.149,1.077,0.089l3.474,2.046
				c0.9,0.317,1.883,0.23,2.71-0.243l0.31-0.177C54.066,22.793,53.622,22.858,53.781,22.683z"/>
			<path fill="#A42B30" d="M54.793,20.58l2.086-4.471c0.244-0.981-0.387-1.978-1.387-2.234l-5.058-0.892l4.97,2.335L54.793,20.58z"
				/>
			<path fill="#DD8D7B" d="M49.18,13.324c-0.024,0.005-0.049,0.011-0.073,0.012c-0.479,0.008-0.957-0.12-1.293-0.442
				c-0.035-0.034-0.063-0.075-0.084-0.118l0.165-0.094c-0.749,0.427-1.323,1.119-1.604,1.942l-1.362,5.018l5.401-5.282L49.18,13.324
				z"/>
			<path fill="#DD8D7B" d="M45.978,21.689l4.921,1.696c0.893,0.314,1.839-0.206,2.098-1.154l1.258-4.816
				c0.238-0.868-0.272-1.759-1.125-1.999l-4.383-1.503c-1.125-0.315-2.33,0.347-2.722,1.497l-1.096,4.23
				C44.683,20.527,45.146,21.449,45.978,21.689z"/>
			<path fill="#BF2B32" d="M48.133,13.741l5.027,1.685c0.967,0.271,1.467,0.456,2.342-0.043l0.426-0.242
				c0.52-0.298,0.391-1.053-0.199-1.204L50.6,12.313c-0.911-0.235-1.883-0.103-2.705,0.367l0.145-0.082
				C47.547,12.878,47.603,13.592,48.133,13.741z"/>
			<path fill="#A42B30" d="M54.079,23.07l-0.096,0.052c0.895-0.513,1.537-1.374,1.79-2.39l1.147-4.787
				c0.146-0.588-0.527-1.072-1.058-0.771l-0.422,0.241c-0.838,0.479-0.903,0.955-1.161,1.896l-1.266,4.848
				C52.838,22.81,53.513,23.395,54.079,23.07z"/>
		</g>
	</g>
	<g>
		<path fill="#BF2B32" d="M36.038,44.923c0.809-0.903,0.662-2.33-0.291-3.178c-0.931-0.828-2.693-1.93-3.496-1.092
			c-0.815,0.853,0.244,3.255,1.168,4.147C34.366,45.719,35.215,45.844,36.038,44.923z"/>
		<g>
			<path fill="#A42B30" d="M32.618,49.348l0.387-2.164l1.719-2.688l-8.535,1.294c0.189,0.295,0.854,0.125,0.995,0.423l2.654,3.034
				c0.754,0.585,1.712,0.813,2.648,0.622l0.348-0.071C32.854,49.542,32.411,49.464,32.618,49.348z"/>
			<path fill="#A42B30" d="M34.241,47.67l3.385-3.587c0.541-0.854,0.256-1.998-0.612-2.558l-4.521-2.438l3.982,3.779L34.241,47.67z"
				/>
			<path fill="#DD8D7B" d="M31.192,39.017c-0.023-0.003-0.048-0.005-0.072-0.014c-0.457-0.143-0.871-0.414-1.087-0.827
				c-0.023-0.043-0.036-0.09-0.042-0.139l0.186-0.037c-0.846,0.169-1.608,0.647-2.133,1.341l-2.872,4.333l6.789-3.313L31.192,39.017
				z"/>
			<path fill="#DD8D7B" d="M25.522,45.95l4.137,3.159c0.748,0.579,1.811,0.382,2.354-0.438l2.709-4.177
				c0.498-0.749,0.294-1.755-0.438-2.251l-3.688-2.806c-0.968-0.653-2.321-0.403-3.054,0.564l-2.371,3.671
				C24.659,44.439,24.809,45.46,25.522,45.95z"/>
			<path fill="#BF2B32" d="M30.068,39.083l4.243,3.182c0.832,0.562,1.249,0.895,2.234,0.694l0.48-0.097
				c0.587-0.118,0.702-0.876,0.189-1.205l-4.358-3.154c-0.79-0.509-1.755-0.688-2.683-0.502l0.162-0.032
				C29.784,38.079,29.611,38.774,30.068,39.083z"/>
			<path fill="#A42B30" d="M32.777,49.809l-0.106,0.02c1.012-0.205,1.893-0.821,2.451-1.705l2.596-4.184
				c0.322-0.513-0.163-1.185-0.762-1.063l-0.477,0.097c-0.945,0.189-1.158,0.623-1.698,1.435l-2.727,4.204
				C31.683,49.171,32.139,49.938,32.777,49.809z"/>
		</g>
	</g>
	<g>
		<path fill="#BF2B32" d="M18.243,23.407c0.939-0.768,1.02-2.197,0.211-3.185c-0.79-0.965-2.358-2.328-3.282-1.626
			c-0.939,0.714-0.269,3.252,0.503,4.279C16.467,23.931,17.285,24.188,18.243,23.407z"/>
		<g>
			<path fill="#A42B30" d="M14.171,27.24l0.722-2.077l2.119-2.385l-8.633-0.062c0.141,0.321,0.823,0.259,0.916,0.573l2.146,3.414
				c0.653,0.695,1.565,1.069,2.519,1.028l0.354-0.016C14.374,27.469,13.948,27.322,14.171,27.24z"/>
			<path fill="#A42B30" d="M16.037,25.838l3.906-3.012c0.667-0.76,0.565-1.934-0.205-2.623l-4.082-3.115l3.342,4.357L16.037,25.838z
				"/>
			<path fill="#DD8D7B" d="M14.384,16.813c-0.023-0.006-0.047-0.013-0.07-0.023c-0.429-0.212-0.794-0.545-0.944-0.987
				c-0.016-0.046-0.021-0.095-0.021-0.144l0.189-0.008c-0.861,0.035-1.689,0.388-2.316,0.99l-3.516,3.828l7.224-2.209L14.384,16.813
				z"/>
			<path fill="#DD8D7B" d="M7.696,22.773l3.591,3.768c0.647,0.689,1.729,0.661,2.395-0.062l3.33-3.701
				c0.609-0.662,0.564-1.688-0.082-2.292l-3.202-3.349c-0.854-0.799-2.229-0.764-3.104,0.078l-2.918,3.254
				C7.08,21.146,7.068,22.177,7.696,22.773z"/>
			<path fill="#BF2B32" d="M13.263,16.703l3.692,3.807c0.733,0.687,1.094,1.079,2.099,1.037l0.489-0.021
				c0.599-0.024,0.831-0.754,0.377-1.16l-3.811-3.798c-0.701-0.627-1.625-0.955-2.571-0.917l0.166-0.007
				C13.14,15.668,12.86,16.327,13.263,16.703z"/>
			<path fill="#A42B30" d="M14.257,27.721l-0.107,0.003c1.029-0.044,1.996-0.516,2.687-1.301l3.22-3.726
				c0.399-0.454,0.023-1.193-0.585-1.168l-0.485,0.02c-0.965,0.04-1.242,0.435-1.902,1.151l-3.352,3.724
				C13.275,26.92,13.605,27.749,14.257,27.721z"/>
		</g>
	</g>
</g>
</svg>
