<?xml version="1.0" encoding="utf-8"?>
<!-- Generator: Adobe Illustrator 16.0.0, SVG Export Plug-In . SVG Version: 6.00 Build 0)  -->
<!DOCTYPE svg PUBLIC "-//W3C//DTD SVG 1.1//EN" "http://www.w3.org/Graphics/SVG/1.1/DTD/svg11.dtd">
<svg version="1.1" id="Layer_1" xmlns="http://www.w3.org/2000/svg" xmlns:xlink="http://www.w3.org/1999/xlink" x="0px" y="0px"
	 width="317.927px" height="318.6px" viewBox="0 0 317.927 318.6" enable-background="new 0 0 317.927 318.6" xml:space="preserve">
<g>
	<g>
		<g>
			<path fill="#DF1F26" d="M158.964,318.6c-43.066,0-82.986-15.381-112.404-43.31C16.535,246.786,0,207.525,0,164.741
				c0-45.219,15.954-81.765,46.14-105.687c27.481-21.78,65.441-32.823,112.824-32.823c47.382,0,85.342,11.043,112.823,32.823
				c30.185,23.922,46.139,60.468,46.139,105.687c0,42.784-16.535,82.045-46.559,110.549C241.949,303.219,202.03,318.6,158.964,318.6
				z"/>
		</g>
	</g>
	<path fill="#C02026" d="M288.273,241.479c-29.418,27.929-69.337,43.31-112.403,43.31s-82.986-15.381-112.404-43.31
		c-30.024-28.504-46.56-67.765-46.56-110.549c0-17.698,2.455-34.06,7.239-48.863C8.264,104.151,0,132.2,0,164.741
		c0,42.784,16.535,82.045,46.56,110.549c29.418,27.929,69.338,43.31,112.404,43.31s82.985-15.381,112.403-43.31
		c17.305-16.429,30.117-36.436,37.877-58.627C303.236,225.599,296.234,233.92,288.273,241.479z"/>
	<path fill="#F04D4D" d="M140.879,191.455c-14.492-23.144-11.31-61.839,28.039-59.246c24.24,1.599,39.372-6.37,74.254-17.981
		c34.889-11.612,63.992,27.981,43.416,74.283C262.695,242.278,170.342,238.504,140.879,191.455z"/>
	<path fill="#FAC4C5" d="M264.076,151.384c5.412-13.792-4.561-23.717-16.293-21.61c-12.046,2.159-1.94,3.588-25.471,6.683
		c-18.465,2.427-17.461,19.074-2.928,26.671C240.459,174.143,257.671,167.702,264.076,151.384z"/>
	<path fill="#2C6C35" d="M93.297,80.198c36.007-1.399,45.778-4.933,54.876-8.543c-4.292-7.563-7.77-14.5-10.448-27.194
		C132.261,18.576,105.919,0,105.919,0c28.26,9.758,46.072,35.557,54.547,55.2c1.741-8.914,4.644-22.181,4.05-35.445
		c-0.379-8.438,1.418-11.362,4.611-12.608c6.502-2.548,8.061,4.031,8.598,6.278c0,0,2.598,21.995,2.219,41.206
		c14.695-15.278,40.084-36.061,68.779-35.037c0,0-32.279,10.453-45.912,32.776c-5.294,8.664-9.58,15.03-14.371,20.066
		c14.803,2.836,22.824,9.703,38.823,17.86c22.213,11.34,45.331,10.781,45.331,10.781s-9.166,11.092-47.378-0.319
		c-25.741-7.69-37.937-9.743-49.104-9.973c-1.343,11.541-6.863,44.131-28.28,74.795c0,0,9.465-22.912,7.36-42.622
		c-1.185-11.079-0.815-25.41-0.478-33.104c-24.606,10.195-34.723,5.766-60.9,0.995c-28.178-5.138-36.732,5.3-36.732,5.3
		S64.558,81.313,93.297,80.198z"/>
</g>
<g>
</g>
<g>
</g>
<g>
</g>
<g>
</g>
<g>
</g>
<g>
</g>
</svg>
