<?xml version="1.0" encoding="utf-8"?>
<!-- Generator: Adobe Illustrator 16.0.0, SVG Export Plug-In . SVG Version: 6.00 Build 0)  -->
<!DOCTYPE svg PUBLIC "-//W3C//DTD SVG 1.1//EN" "http://www.w3.org/Graphics/SVG/1.1/DTD/svg11.dtd">
<svg version="1.1" id="Layer_1" xmlns="http://www.w3.org/2000/svg" xmlns:xlink="http://www.w3.org/1999/xlink" x="0px" y="0px"
	 width="315.948px" height="315.947px" viewBox="0 0 315.948 315.947" enable-background="new 0 0 315.948 315.947"
	 xml:space="preserve">
<g>
	<circle fill="none" stroke="#DF1F26" stroke-width="38" stroke-miterlimit="10" cx="157.974" cy="157.973" r="138.974"/>
	<circle fill="#F68F79" cx="157.974" cy="157.973" r="138.974"/>
	
		<path fill="#C02026" stroke="#C02026" stroke-width="5.1" stroke-linecap="round" stroke-linejoin="round" stroke-miterlimit="10" d="
		M157.896,157.777c5.034-19.412,47.815-67.947,47.815-67.947c10.784-11.324,17.946-29.689-4.334-39.466
		c-13.238-5.809-28.057-8.393-43.403-8.393c-15.346,0-30.164,2.584-43.403,8.393c-22.28,9.776-15.118,28.142-4.334,39.466
		c0,0,42.782,48.535,47.814,67.947H157.896z"/>
	
		<path fill="#F68F79" stroke="#C02026" stroke-width="2" stroke-linecap="round" stroke-linejoin="round" stroke-miterlimit="10" d="
		M168.486,141.081c-12.369-30.513,6.357-34.039,9.621-47.521c4.15-17.153-20.134-16.693-20.134-16.693s-24.283-0.46-20.133,16.693
		c3.264,13.482,21.989,17.009,9.623,47.521"/>
	<g>
		<path fill="#F39937" d="M157.974,65.995c-3.332,0-4.467-6.657-4.467-9.331c0-2.676,2.001-4.843,4.467-4.843
			c2.47,0,4.468,2.167,4.468,4.843C162.441,59.338,161.31,65.995,157.974,65.995z"/>
		<path fill="#F39937" d="M145.137,68.157c-3.283,0.577-5.557-5.786-6.022-8.417c-0.464-2.634,1.129-5.116,3.56-5.547
			c2.431-0.428,4.776,1.361,5.24,3.994C148.38,60.821,148.42,67.577,145.137,68.157z"/>
		<path fill="#F39937" d="M135.777,72.345c-2.259,2.446-7.925-1.237-9.89-3.051c-1.963-1.813-2.199-4.755-0.527-6.567
			c1.676-1.813,4.624-1.812,6.588,0.002C133.914,64.543,138.039,69.894,135.777,72.345z"/>
		<path fill="#F39937" d="M129.4,80.925c-0.139,3.331-6.84,4.186-9.514,4.076c-2.67-0.113-4.749-2.203-4.648-4.668
			c0.104-2.468,2.354-4.375,5.024-4.261C122.934,76.184,129.54,77.592,129.4,80.925z"/>
		<path fill="#F39937" d="M170.813,68.157c3.281,0.577,5.557-5.786,6.02-8.417c0.466-2.634-1.129-5.116-3.558-5.547
			c-2.431-0.428-4.776,1.361-5.241,3.994C167.568,60.821,167.529,67.577,170.813,68.157z"/>
		<path fill="#F39937" d="M180.172,72.345c2.259,2.446,7.926-1.237,9.889-3.051c1.965-1.813,2.199-4.755,0.527-6.567
			c-1.675-1.813-4.623-1.812-6.588,0.002C182.034,64.543,177.91,69.894,180.172,72.345z"/>
		<path fill="#F39937" d="M186.549,80.925c0.139,3.331,6.841,4.186,9.515,4.076c2.669-0.113,4.749-2.203,4.647-4.668
			c-0.104-2.468-2.352-4.375-5.023-4.261C193.014,76.184,186.408,77.592,186.549,80.925z"/>
	</g>
	
		<path fill="#C02026" stroke="#C02026" stroke-width="5.1" stroke-linecap="round" stroke-linejoin="round" stroke-miterlimit="10" d="
		M157.974,157.975c-19.413-5.032-67.946-47.814-67.946-47.814c-11.325-10.786-29.691-17.945-39.467,4.333
		c-5.811,13.24-8.392,28.058-8.392,43.403c0,15.349,2.582,30.164,8.392,43.404c9.775,22.278,28.142,15.116,39.467,4.333
		c0,0,48.533-42.78,67.946-47.813V157.975z"/>
	
		<path fill="#F68F79" stroke="#C02026" stroke-width="2" stroke-linecap="round" stroke-linejoin="round" stroke-miterlimit="10" d="
		M141.274,147.386c-30.51,12.368-34.032-6.356-47.52-9.622c-17.151-4.149-16.69,20.133-16.69,20.133s-0.46,24.283,16.69,20.134
		c13.487-3.264,17.009-21.988,47.52-9.625"/>
	<g>
		<path fill="#F39937" d="M66.193,157.896c0,3.331-6.661,4.471-9.334,4.471c-2.675,0-4.843-2.002-4.843-4.471
			c0-2.468,2.168-4.466,4.843-4.466C59.533,153.431,66.193,154.562,66.193,157.896z"/>
		<path fill="#F39937" d="M68.353,170.734c0.578,3.285-5.783,5.557-8.417,6.024c-2.633,0.462-5.115-1.134-5.544-3.563
			c-0.428-2.429,1.359-4.773,3.994-5.238C61.018,167.493,67.774,167.451,68.353,170.734z"/>
		<path fill="#F39937" d="M72.54,180.094c2.447,2.259-1.235,7.925-3.048,9.89c-1.815,1.964-4.756,2.201-6.568,0.527
			c-1.814-1.675-1.813-4.624,0.003-6.59C64.739,181.957,70.089,177.833,72.54,180.094z"/>
		<path fill="#F39937" d="M81.123,186.471c3.329,0.14,4.185,6.842,4.072,9.513c-0.111,2.672-2.202,4.754-4.667,4.652
			c-2.466-0.106-4.373-2.354-4.26-5.026C76.378,192.938,77.79,186.331,81.123,186.471z"/>
		<path fill="#F39937" d="M68.353,145.06c0.578-3.283-5.783-5.559-8.417-6.021c-2.633-0.467-5.115,1.129-5.544,3.558
			c-0.428,2.431,1.359,4.775,3.994,5.241C61.018,148.301,67.774,148.341,68.353,145.06z"/>
		<path fill="#F39937" d="M72.54,135.7c2.447-2.262-1.235-7.925-3.048-9.89c-1.815-1.962-4.756-2.199-6.568-0.525
			c-1.814,1.673-1.813,4.623,0.003,6.588C64.739,133.837,70.089,137.961,72.54,135.7z"/>
		<path fill="#F39937" d="M81.123,129.323c3.329-0.136,4.185-6.842,4.072-9.513c-0.111-2.672-2.202-4.752-4.667-4.65
			c-2.466,0.105-4.373,2.354-4.26,5.024C76.378,122.856,77.79,129.465,81.123,129.323z"/>
	</g>
	
		<path fill="#C02026" stroke="#C02026" stroke-width="5.1" stroke-linecap="round" stroke-linejoin="round" stroke-miterlimit="10" d="
		M157.974,157.973c-5.032,19.416-47.814,67.947-47.814,67.947c-10.785,11.326-17.946,29.691,4.333,39.468
		c13.239,5.809,28.057,8.391,43.404,8.391c15.346,0,30.165-2.582,43.403-8.391c22.279-9.776,15.119-28.142,4.334-39.468
		c0,0-42.781-48.531-47.814-67.947H157.974z"/>
	
		<path fill="#F68F79" stroke="#C02026" stroke-width="2" stroke-linecap="round" stroke-linejoin="round" stroke-miterlimit="10" d="
		M147.385,174.675c12.365,30.509-6.36,34.033-9.623,47.518c-4.15,17.153,20.133,16.691,20.133,16.691s24.284,0.462,20.133-16.691
		c-3.263-13.484-21.988-17.009-9.623-47.518"/>
	<g>
		<path fill="#F39937" d="M157.896,249.755c3.334,0,4.468,6.66,4.468,9.335c0,2.674-2.002,4.841-4.468,4.841
			c-2.469,0-4.468-2.167-4.468-4.841C153.428,256.415,154.561,249.755,157.896,249.755z"/>
		<path fill="#F39937" d="M170.732,247.593c3.285-0.577,5.559,5.786,6.022,8.417c0.466,2.636-1.13,5.118-3.56,5.547
			c-2.43,0.428-4.775-1.359-5.24-3.992C167.49,254.931,167.451,248.173,170.732,247.593z"/>
		<path fill="#F39937" d="M180.094,243.407c2.26-2.446,7.925,1.237,9.889,3.051c1.964,1.811,2.2,4.753,0.526,6.567
			c-1.675,1.813-4.622,1.812-6.587-0.004C181.955,251.209,177.832,245.858,180.094,243.407z"/>
		<path fill="#F39937" d="M186.469,234.825c0.14-3.329,6.842-4.186,9.515-4.072c2.672,0.112,4.751,2.204,4.651,4.666
			c-0.105,2.469-2.354,4.373-5.025,4.262C192.938,239.568,186.33,238.158,186.469,234.825z"/>
		<path fill="#F39937" d="M145.058,247.593c-3.282-0.577-5.557,5.786-6.022,8.417c-0.463,2.636,1.131,5.118,3.56,5.547
			c2.431,0.428,4.777-1.359,5.243-3.992C148.302,254.931,148.341,248.173,145.058,247.593z"/>
		<path fill="#F39937" d="M135.699,243.407c-2.26-2.446-7.925,1.237-9.889,3.051c-1.964,1.811-2.199,4.753-0.528,6.567
			c1.676,1.813,4.624,1.812,6.589-0.004C133.836,251.209,137.959,245.858,135.699,243.407z"/>
		<path fill="#F39937" d="M129.322,234.825c-0.137-3.329-6.841-4.186-9.514-4.072c-2.669,0.112-4.75,2.204-4.65,4.666
			c0.104,2.469,2.354,4.373,5.026,4.262C122.855,239.568,129.462,238.158,129.322,234.825z"/>
	</g>
	
		<path fill="#C02026" stroke="#C02026" stroke-width="5.1" stroke-linecap="round" stroke-linejoin="round" stroke-miterlimit="10" d="
		M157.974,157.975c19.415,5.034,67.948,47.814,67.948,47.814c11.324,10.786,29.689,17.945,39.467-4.333
		c5.809-13.238,8.392-28.058,8.392-43.401c0-15.347-2.583-30.168-8.392-43.406c-9.777-22.278-28.143-15.118-39.467-4.333
		c0,0-48.533,42.782-67.948,47.814V157.975z"/>
	
		<path fill="#F68F79" stroke="#C02026" stroke-width="2" stroke-linecap="round" stroke-linejoin="round" stroke-miterlimit="10" d="
		M174.674,168.563c30.511-12.366,34.033,6.36,47.52,9.622c17.151,4.151,16.691-20.131,16.691-20.131s0.46-24.285-16.691-20.136
		c-13.486,3.264-17.009,21.988-47.52,9.623"/>
	<g>
		<path fill="#F39937" d="M249.756,158.055c0-3.335,6.66-4.471,9.333-4.471c2.676,0,4.843,2.002,4.843,4.471
			c0,2.468-2.167,4.466-4.843,4.466C256.416,162.521,249.756,161.388,249.756,158.055z"/>
		<path fill="#F39937" d="M247.596,145.215c-0.577-3.281,5.783-5.557,8.416-6.022c2.635-0.464,5.116,1.132,5.545,3.56
			c0.428,2.431-1.359,4.775-3.992,5.244C254.93,148.458,248.175,148.498,247.596,145.215z"/>
		<path fill="#F39937" d="M243.408,135.855c-2.445-2.262,1.236-7.923,3.049-9.888c1.814-1.964,4.756-2.201,6.568-0.527
			c1.813,1.673,1.813,4.622-0.002,6.588C251.209,133.995,245.859,138.118,243.408,135.855z"/>
		<path fill="#F39937" d="M234.825,129.48c-3.327-0.14-4.184-6.844-4.071-9.517c0.111-2.67,2.201-4.748,4.667-4.648
			c2.466,0.104,4.373,2.354,4.259,5.024C239.57,123.012,238.158,129.62,234.825,129.48z"/>
		<path fill="#F39937" d="M247.596,170.89c-0.577,3.283,5.783,5.557,8.416,6.022c2.635,0.465,5.116-1.129,5.545-3.558
			c0.428-2.431-1.359-4.777-3.992-5.243C254.93,167.648,248.175,167.606,247.596,170.89z"/>
		<path fill="#F39937" d="M243.408,180.249c-2.445,2.262,1.236,7.927,3.049,9.89c1.814,1.964,4.756,2.201,6.568,0.527
			c1.813-1.675,1.813-4.621-0.002-6.588C251.209,182.112,245.859,177.988,243.408,180.249z"/>
		<path fill="#F39937" d="M234.825,186.626c-3.327,0.142-4.184,6.842-4.071,9.515c0.111,2.67,2.201,4.75,4.667,4.652
			c2.466-0.107,4.373-2.355,4.259-5.026C239.57,193.095,238.158,186.486,234.825,186.626z"/>
	</g>
	<circle fill="#F68F79" cx="157.975" cy="157.975" r="23.671"/>
</g>
<g>
</g>
<g>
</g>
<g>
</g>
<g>
</g>
<g>
</g>
<g>
</g>
</svg>
